<svg xmlns="http://www.w3.org/2000/svg" version="1.1" xmlns:xlink="http://www.w3.org/1999/xlink" xmlns:svgjs="http://svgjs.dev/svgjs" viewBox="0 0 640 800" opacity="0.45"><defs><linearGradient x1="50%" y1="0%" x2="50%" y2="100%" id="ssscribble-grad"><stop stop-color="#ff6600" stop-opacity="1" offset="0%"></stop><stop stop-color="#ff6600" stop-opacity="1" offset="100%"></stop></linearGradient></defs><g fill="none" stroke-width="3.75" stroke="#ff6600" stroke-linecap="round" stroke-dasharray="52"><path d="M1307.7 224.34C1297.53 252.44 1240.23 279.95 1152.95 307.27 1059.41 335.18 983.63 364.04 943.39 394.97 947.38 428.05 990.69 465.08 1059.13 507.37 1136.59 553.32 1200.4 605.7 1235.25 664.63 1234.54 725.96 1196.17 791.56 1128.37 858.63 1042.64 920.91 954.23 977.39 876.76 1022.8 804.11 1058.68 821.13 1010.85 880.04 942.06 940.53 881.94 978.43 898.68 945.53 999.98 904.98 1091.52 854.25 1184.09 797.63 1259.73 735.82 1302.74 674.06 1304.29 614.92 1263.56 556.65 1194.24 503.35 1113.13 455.37 1044.38 409.86 1012.26 369.17 1027.27 332.53 1089.61 297.54 1183.98 265.26 1284.23 234.91 1360.15 205.03 1388.52 176.17 1359.06 148.08 1279.85 119.98 1178.71 93.31 1088.76 68.46 1038.05 44.08 1041.66 22.43 1095.05 4.44 1178.58 -17.59 1299.93 -30.03 1290.75 -18.75 1161.6 -8.31 1064.54 5.97 986.57 21.64 941.84 32.13 936.5 38.07 966.08 35.31 1018.47 19.16 1082.16 -11.15 1138.18 -57.53 1174.15 -118.06 1184.89 -190.94 1165.41 -271.11 1119.62 -349.35 1052.88 -419.42 974.51 -472.15 893.93 -500.68 816.17 -501.19 749.6 -473.19 697.3 -424.98 659.53 -363.79 636.54 -303.12 625.26 -260.39 625.01 -244.92 630.46 -264.8 637.77 -320.24 648.72 -402.35 656.85 -495.66 660.39 -608.32 662.01 -588.37 634.4 -466.63 606.91 -384.91 586.58 -330.46 562.26 -320.29 534.16 -359.61 506.07 -434.73 474.86 -523.27 440.46 -602.75 405.65 -649.11 366.88 -650.77 323.76 -608.41 279.51 -531.59 230.31 -439.1 176.29 -350.92 121.77 -285.59 63.74 -254.1 4.11 -260.47 -51.9 -298.37 -104.83 -355.47 -150.72 -447.78 -196.47 -504 -191.55 -443.4 -141.63 -374.38 -101.24 -294.92 -61.45 -214.61 -31.54 -139.39 -22.57 -77.19 -38.16 -31.02 -82.06 -1.68 -151.21 11.66 -238.51 12.52 -331.46 -6.2 -441.51 -57.46 -442.46 -73.09 -338.46 -77.47 -239.05 -46.7 -277.41 -16.16 -416.3 7.43 -510.68 33.46 -572.35 60.82 -581.54 88.69 -536.41 116.91 -449.32 145 -348.18 173.1 -268.95 200.41 -236.62 227.27 -259.42 254.64 -329.77 282.53 -421.75 311.92 -505.28 343.18 -556.79 377.6 -558.39 416.41 -510.43 458.6 -425.83 506.5 -326.42 560.57 -236.5 617.61 -175.17 679.65 -153.81 744.85 -171.76 807.93 -222.33 868.68 -287.67 922.74 -349.96 965.19 -397.25 993.66 -415.49 1004.53 -401.43 998.57 -357.41 974.95 -289.74 936.55 -209.1 893.08 -123.58 848.68 -44.79 812.84 20.4 796.96 69.26 805.13 99.23 841.45 112.58 904 110.48 986.04 98.78 1076 82.63 1188.57 52.64 1211.56 19.46 1115.72 23.25 1039.09 31.94 975.68 46.96 944.14 66.87 956.64 88.93 1011.26 114 1096.29 140.81 1190.38 168.22 1268.36 196.24 1307.69 224.33Q1307.7 224.34 1307.7 224.34" opacity="0.99"></path><path d="M1233.7 383.79C1226.52 409.34 1179.42 439.31 1104.38 473.44 1018.52 507.58 940.28 545.82 885.37 587.72 864.1 629.2 878.06 673.55 921.3 719.56 985.13 763.33 1052.96 806.39 1110.47 846.4 1148.59 880.41 1157.7 907.61 1136.7 925.29 1089.06 933.3 1021.5 929.47 944.01 913.24 865.05 889.42 794.74 857.28 739.55 820.94 694.48 777.3 716.77 779.95 759.87 849.11 792.44 920.09 819.91 1002.36 839.28 1085.65 852.59 1181.82 815.13 1188.8 771.19 1099.61 734.6 1029.21 695.03 969.34 654.48 936.44 611.74 942.46 570.08 987.73 530.67 1064.8 490.7 1156.7 453.79 1242.05 420.48 1299.03 387.12 1313.23 357.51 1279.55 331.97 1205.85 306.42 1113.93 285.55 1028.79 269.16 972.6 252.72 959.38 240.6 989.88 232.4 1053.5 223.64 1134.75 217.98 1209.89 214.38 1260.2 208.58 1275.45 202.79 1250.15 195.11 1190.56 182.16 1108.26 164.24 1019.4 139.22 939.77 105.99 880.97 63.68 850.98 11.8 850.31 -46.93 876.71 -112.42 920.39 -181.53 970.68 -248.07 1021.02 -309.37 1059.21 -359.67 1079.53 -393.9 1081.05 -408.99 1061.37 -402.47 1023.69 -377.44 971.04 -335.58 908.9 -283.21 842.85 -232.32 774.58 -189.51 710.27 -164.66 652.47 -166.44 600.3 -196.36 556.62 -253.21 520.73 -329.44 491.18 -413.91 467.46 -492.15 447.66 -549.8 431.73 -575.96 417.11 -564.55 402.18 -519.5 388.8 -448.77 373.42 -367.96 355.12 -297.98 337.16 -253.46 315.58 -246.29 290.04 -280.19 264.5 -344.93 235.59 -424.25 203.8 -501.75 172.35 -557.58 138.7 -579.86 103.91 -565.29 70.67 -515.76 37.97 -441.91 7.55 -357.29 -18.97 -277.29 -40.63 -214.85 -55.35 -178.64 -63.73 -171.92 -63.21 -191.82 -52.98 -234.01 -37.13 -286.83 -13.54 -339.57 15.36 -400.39 54.1 -393.25 75.71 -325.94 33.03 -262.97 -20.76 -194.03 -90.83 -124.9 -171.33 -57.92 -251.78 1.38 -323.9 51.07 -376.91 91.35 -402.84 121.22 -397.61 142.23 -361.6 154.88 -304.76 161.88 -236.71 165.69 -173.14 165.17 -132.26 164.7 -123.59 165.97 -153.23 165.97 -217.96 169.35 -305.29 176.82 -396.39 184.23 -469.88 196.08 -507.91 212.51 -499.76 229.02 -448.64 250 -366.1 275.54 -274.18 301.09 -200.46 330.58 -164.17 363.83 -173.31 397.15 -225.22 434.32 -303.06 475.08 -385.1 515.79 -452.32 559.72 -485.4 606.06 -477.02 651.14 -429.71 696.98 -353.21 741.76 -264.09 782.22 -178.67 818.39 -112.86 847.68 -75.99 868.62 -71.94 879.46 -96.82 878.56 -141.57 868.24 -198.26 846.96 -252.09 816.53 -292.91 783.94 -316.28 750.07 -315.68 720.58 -291.95 703.69 -247.91 701.67 -188.48 718.92 -120.47 757.2 -47.59 814.81 22.56 887.64 85.75 966.98 141.35 1044.55 185.9 1109.53 219.83 1152.22 244.1 1166.33 260.06 1148.85 270.32 1105.14 274.57 1041.77 276.87 971.56 279.45 893.45 281.27 933.86 301.11 1048.07 322.11 1132.44 337.73 1199.78 358.24 1233.69 383.78Q1233.7 383.79 1233.7 383.79" opacity="0.52"></path><path d="M1159.7 574.7C1155.12 597.69 1117.46 620.87 1054.8 643.87 978.95 666.48 903.24 688.13 840.39 707.95 800.16 726.29 787.5 741.45 802.05 752.29 841.05 760.32 894.83 762.75 953.2 758.86 1008.73 751.91 1050.15 738.88 1071.54 720.52 1071.31 702.02 1047.97 681.57 1005.03 662.03 946.83 649.32 879.87 643.56 810.89 648.42 744.18 667.19 685.89 700.34 639.08 748.43 604.92 808.5 584.19 878.03 575.32 951.55 577.84 1020.7 587.93 1079.73 602.34 1121.05 621.5 1139.63 640.06 1132.78 655.83 1100.86 670.89 1051.35 680.72 990.47 684.89 929.44 686.3 882.71 682.05 858.26 672.82 863.66 661.19 901.1 645.71 965.23 627.36 1045.75 607.74 1127.61 586.4 1195.15 564.07 1233.87 541.41 1235.99 518.43 1199.65 495.44 1131.85 472.45 1049.22 450 970.05 427.88 911.21 405.43 884.7 382.65 894.14 358.91 935.25 333.91 999.87 306.8 1071.7 276.73 1135.56 244.24 1180.93 207.66 1197.02 166.42 1181.54 122.41 1137.57 73.73 1071.83 20.92 994.95 -32.59 916.65 -87.79 847.93 -142.38 796.13 -192.22 765.36 -236.52 756.77 -271.95 767.5 -295.96 795.24 -306.8 832.12 -302.77 871.41 -286.09 910.66 -256.49 941.7 -216.94 961.31 -175.1 969.99 -133.73 964.74 -99.47 946.96 -80.47 918.38 -79.4 880.82 -99.68 837.36 -141.58 788.46 -201.73 737.98 -274.11 688.19 -349.33 637.51 -418.08 589.79 -470.05 545.82 -497.58 502.79 -495.89 463.79 -464.54 428.66 -410.56 394.44 -341.62 363.48 -270.31 335.46 -212.2 307.74 -176.87 282.41 -172.29 259.42 -201.11 236.43 -255.83 216.33 -325.06 199.27 -397.48 182.5 -457.54 169.34 -494.66 160.21 -504 151.97 -482.69 148.39 -434.99 149.71 -368.43 151.97 -293.01 158.86 -219.54 169.7 -117.12 197.04 -209.34 170.1 -271.19 114.04 -302.97 61.54 -320.75 -1.05 -323.18 -70.42 -311.26 -139.85 -284.87 -205.42 -246.89 -260.32 -199.2 -298.2 -145.64 -315.2 -89.67 -308.38 -31.73 -280.53 23.92 -234.09 75.57 -176.29 124.4 -119.92 167.73 -72.91 205.66 -45.78 239.8 -47.14 269.35 -78.18 295.32 -136.52 318.59 -213.36 339.8 -296.16 359.98 -369.65 378.89 -419.65 398 -435.86 418 -413.92 437.69 -359.64 458.9 -282.8 481.89 -200.18 504.88 -132.36 529.1 -93.68 554.19 -91.24 578.96 -125.4 603.97 -186.17 628.42 -259.16 651.6 -330.8 672.98 -383.97 691.42 -408.44 707.16 -400.88 718.43 -361.47 724.14 -297.89 726.05 -220.01 721.57 -140.4 710.5 -70.38 696.59 -17.95 677.57 11.17 655.06 16.53 634.52 -0.83 615.18 -34.26 600.38 -76.26 595.29 -122.64 600.46 -163.47 618.67 -193.41 651.22 -211.39 697.7 -212.97 756.61 -198.85 823.2 -170.82 893.62 -130.85 961.42 -82.71 1018.96 -27.75 1060.9 29.34 1081.58 85.59 1079.34 141.7 1053.65 193.58 1007.78 240.37 951.17 284.09 890.72 322.49 837.12 356.18 802.4 387.05 792.05 414.48 810.26 439.5 856.24 463.03 923.06 485.5 1000.02 507.67 1073.8 529.45 1130.86 551.7 1159.69 574.69Q1159.7 574.7 1159.7 574.7" opacity="0.60"></path><path d="M1085.7 426.37C1083.31 446.81 1054.24 463.24 1003.69 475.78 939.42 488.28 870.44 496.87 806.19 501.71 738.2 507.43 734.53 505.46 790.08 501.89 840.03 502.48 889.76 504.88 932.91 510.92 966.53 523.11 984.81 541.59 986.33 567.88 971.89 602.15 941.99 644.96 899.83 695.96 848.02 752.03 790.93 812.48 732.54 874.02 674.55 931.27 621.11 981.69 574.14 1020.6 533.72 1044.44 501.45 1050.92 476.86 1038.6 459.54 1010.53 448.37 968.22 441.77 916.86 440.29 843.27 445.78 784.06 446.64 826.49 447.1 883.2 444.55 953.4 438.61 1027.34 427.93 1118.05 388.49 1138.1 359.67 1057.85 339.23 984.56 315.62 912.37 289 853.57 262.33 817.71 232.6 809.39 200 828.23 167.4 871.19 132.09 928.67 94.56 990.37 57.63 1048.38 19.32 1091.56 -19.35 1113.86 -55.77 1113.51 -90.72 1089.39 -122.58 1045.31 -149.53 986.14 -170.94 918.95 -185.11 850.95 -192.02 787.21 -190.16 733.92 -178.98 694.19 -161.25 669.42 -135.87 659.66 -104.66 662.77 -73.05 677.93 -41.47 700.28 -13.78 726 4.23 754.9 11.38 781.18 4.55 802.53 -18.24 820.38 -56.32 830.78 -108.17 833.64 -169.55 831.06 -235.93 821.56 -300.86 806.41 -357.13 786.97 -398.95 763.74 -420.78 738.16 -420.56 710.25 -397.37 681.66 -353.74 653.5 -297.38 624.43 -234.41 596.79 -174.19 571.22 -127.68 545.46 -100.68 522.19 -98.29 501.76 -122.38 481.32 -167.58 464.2 -226.23 450.16 -291.06 435.92 -350.56 424.35 -396.21 414.88 -423.37 404.5 -426.93 395.23 -407.1 386.07 -366.94 374.57 -311.06 361.52 -246.42 345.54 -179.36 325.29 -117.17 300.25 -65.36 269.28 -27.49 232.87 -5.84 189.91 -0.09 140.56 -9.89 87.72 -31.28 31.02 -60.16 -27.1 -95.06 -82.06 -129.62 -132.48 -160.24 -174.42 -195.72 -212.2 -207.65 -188.57 -184.23 -130.85 -158.57 -84.13 -126.93 -36.73 -91.27 4.2 -51.66 30.06 -10.66 37.53 30.2 22.91 72.3 -14.35 112.74 -70.83 150.78 -140.37 188.73 -213.6 223.85 -280.84 255.94 -331.69 287.71 -358.42 316.59 -356.13 342.58 -324.33 368.45 -269.58 391.65 -199.46 412.09 -126.18 441.11 -44.87 482.63 -52.76 494.56 -132.57 501.02 -198.62 503.75 -259.07 502.87 -304.26 501.91 -328.99 497.77 -328.03 491.08 -302.26 485.62 -255.39 479.15 -193.39 473.09 -124.25 470.98 -54.65 471.91 7.45 477.74 56.8 490.79 90.4 511.24 106.68 540.29 106.98 577.72 92.19 623.6 67.29 676.94 36.82 734.35 2.07 794.41 -30.32 853.44 -57.15 906.46 -78.91 950.6 -91.31 981.68 -94.1 997.22 -88.9 995.38 -74.8 975.74 -53.45 942.15 -25.94 896.62 6.18 844.54 41.01 794.87 78.96 752.3 117.31 723.66 154.74 715.35 193.17 728.67 229.49 763.71 263.07 817.24 296.77 882.74 327.41 951.61 354.7 1014.31 381.97 1061.59 405.93 1085.69 426.36Q1085.7 426.37 1085.7 426.37" opacity="0.17"></path><path d="M1011.7 226.83C1011.08 244.71 989.65 261.81 950.57 278.31 898.69 295.04 839.56 311.62 779.66 328.53 724.74 346.34 679.96 365.34 648.84 386.19 633.74 408.89 634.51 434.45 649.51 463.51 677.53 495.13 713.6 530.82 753.39 570.69 794.93 612.65 832.29 658.05 862.3 705.9 896.52 798.53 883.78 883.1 831.63 940.02 750.46 956.33 657.09 925.38 566.99 853.04 523.49 812 483.63 770.95 447.77 734.76 414.7 709.78 385.6 698.05 360.05 702.73 337.07 725.45 316.78 764.78 298.5 818 281.86 879.9 266.24 944.48 251.01 1004.4 229.12 1067.62 182.4 1057.27 156.23 983.85 138.35 919.93 119.58 855.56 100.17 799.28 80.95 758.1 61.46 736.42 42.22 735.74 23.73 756.03 6.23 792.7 -9.57 840.02 -23.72 893.53 -35.19 944.65 -43.2 987.35 -49.19 1026.16 -33.86 995.73 -12.23 933.63 22.74 821.26 64.77 709.07 99.07 621.68 104.35 568.07 74.69 550.28 3.24 556.27 -45.38 567.12 -100.07 579.49 -157.56 591.68 -213.3 605.4 -263.93 616.9 -305.06 625.36 -339.37 635.52 -301.42 635.62 -235.28 626.16 -182.28 618.11 -128.42 607.22 -80.07 593.8 -44.52 580.17 -24.91 564.37 -24.29 546.5 -44.01 528.62 -80.31 509.08 -128.31 487.87 -183.75 466.48 -238.59 443.05 -286.63 417.38 -324.34 391.08 -346.28 362.04 -350.68 330.06 -338.1 297.16 -309.14 261.12 -267.02 222.12 -215.24 182.67 -158.35 140.95 -100.93 97.88 -46.25 56.32 1.62 15.46 40.33 -22.95 85.03 -84.05 87.06 -117.61 60.01 -110.88 11.73 -70.37 -33.84 -0.58 -64.28 74.56 -78.17 109.37 -73.38 91.97 -57 32.78 -41.99 -23.01 -24.19 -85.77 -4.55 -149.37 16.69 -206.78 38.73 -252 60.8 -279.2 83.56 -285.42 105.65 -269.01 126.59 -231.38 147.69 -178.65 167.31 -116.1 185.2 -52.18 210.94 22.16 252.52 43.14 269.6 -10.52 281.24 -63.53 292.33 -119.58 303.52 -171.39 316.32 -214.53 330.28 -242.23 346.24 -251.84 364.99 -243.42 386.92 -217.13 412.77 -176.2 442.24 -124.07 476.25 -65.69 514.93 -6.04 600.48 103.53 697.4 176.89 792.55 207.46 866.48 197.42 906.86 164.19 899.4 126.68 879.31 106.38 848.76 89.49 810.03 76.88 768.57 66.37 726.24 60.89 687.56 60.25 649.89 65.28 668.45 96.76 728.29 119.73 783.23 136.54 843.32 154.27 902.3 172.37 953.84 190.7 991.96 208.93 1011.69 226.82Q1011.7 226.83 1011.7 226.83" opacity="0.97"></path><path d="M937.7 363.53C924.14 394.18 855.5 435.32 757.03 485.82 657.95 536.38 585.09 595.6 553.14 660 566.1 719.64 611.47 776.28 670.57 820.74 733.23 846.31 777.46 847.35 795.55 819.2 789.82 772.88 758.45 711.08 709.89 651.06 648.1 618.84 582.08 624.56 518.81 677.77 454.33 770.17 397.3 879.69 349.24 972.17 301.95 1016.4 262.77 994.15 232.12 909.85 201.46 799.58 180.8 705.4 170.27 659.69 160.53 675.64 161.8 739.4 173.16 822.37 191.08 923.24 208.41 862.88 167.64 736.06 109.38 643.11 28.81 562.42 -65.76 499.81 -156.78 453.45 -229.63 423.61 -265.06 403.94 -255.58 393.49 -200.17 383.92 -112.91 369.99 -26.28 357.88 36.14 337.41 49.7 306.77 4.63 276.11 -78.35 236.73 -168.95 191.04 -243.3 147.16 -273.89 100.96 -254.81 58.3 -193.44 24.84 -104.43 4.2 -9.21 3.31 78.1 18.68 142.85 55.36 181.42 108.13 194.14 157.1 188.05 196.14 172.88 207.32 148.26 176.85 127.81 105.66 116.5 4.18 107.45 -141.86 146.2 -132.42 188.21 21.81 218.86 106.14 255.99 134.61 299.8 102.23 345.04 21.58 399.14 -70.48 462.14 -140.43 526.56 -171.18 597.49 -149.42 669.35 -85.29 731.76 6.63 781.87 104.77 809.33 191.27 810.94 259.6 782.53 302.57 727.14 324.25 633.07 323.96 590.79 301.35 700.97 306.86 803.4 314.16 892.61 332.87 937.69 363.52Q937.7 363.53 937.7 363.53" opacity="0.21"></path><path d="M863.7 571.04C856.53 596.58 808.87 623.51 734.24 649.98 648.69 674.61 569.24 695.26 509.39 708.23 476.58 714.98 471.78 709.6 489.4 690.03 526.47 664.11 569.51 627.24 609.18 585.21 646.02 552.37 669.11 530.78 677.39 530.84 675.88 560.07 661.73 617.72 638.92 698.69 610.46 788.49 578.54 871.32 546.77 926.81 513.64 941.79 483.43 909.55 457.89 835.85 432.35 743.92 412.68 658.36 397.64 600.42 381.23 582.45 366.69 603.55 350.88 652.76 329.43 720.38 301.51 784.51 263.66 831.17 216.01 857.21 156.25 854.36 85.93 826.67 12.78 779.11 -60.54 718.83 -124.21 654.63 -168.42 586.8 -186.53 524.17 -172.44 469.71 -131.31 418.07 -66.4 374.58 9.27 338.35 74.05 303.56 116.53 273.61 123.7 248.06 89.8 222.52 27.28 202.59 -46.86 189.21 -145.98 175.77 -163.43 202.13 -82.14 240.87 -7.41 265.7 69.45 289.31 139.74 303.4 201.67 297.62 249.79 270.19 284.83 217.56 308.7 144.31 324.16 57.28 335.6 -29.06 341.88 -97 349.57 -132.65 361.67 -124.54 372.72 -76.48 390.44 3.89 415.98 95.81 441.52 169.53 473.68 206.96 510.79 201.85 546.86 156.22 585.65 87.93 623.63 16.86 669.77 -62.76 697.18 -30.3 663.01 61.94 626.2 137.45 579.62 210.99 531.49 276.28 496.85 335.22 479.63 382.67 488.79 420.19 528.67 451.48 594.99 477.29 678.07 500.84 762.08 522.54 829.78 545.49 863.69 571.03Q863.7 571.04 863.7 571.04" opacity="0.87"></path><path d="M789.7 446.42C787.31 466.86 757.68 479.44 707.21 484.5 643.55 489.39 575.2 486.66 510.96 477.2 456.12 468.67 415.63 455.57 390.72 440.93 381.71 432.39 385.31 428.32 397.18 433.38 417.76 452.05 439.48 485.04 458.5 533.46 478.65 593.82 492.5 663.3 499 734.37 503.16 820.57 476.43 841.43 448.47 761.85 428.03 688.56 403.19 616.12 374.07 556.68 344.3 518.43 309.16 504.75 268.57 513.96 226.66 544.53 179.15 586.69 127.51 631.87 76.99 678.49 25.94 715.65 -21.41 739.82 -73.98 753.74 -85.45 706.8 -34.5 661.83 14.74 627.21 71.46 593.29 127.24 562.66 169.82 531.34 195.31 504.81 197.7 484.37 173.61 463.93 130.1 450.56 75.58 443.35 14.86 435.44 -39.32 432.18 -79.8 431.38 -105.69 427.03 -111.21 421.23 -97.84 410.47 -68.79 391.1 -26.87 362.08 22.38 321.22 77.45 270.27 132.56 208.89 184.17 140.99 234.55 74.53 279.1 14.04 317.38 -31.5 353.33 -55.7 384.24 -53.66 410.85 -23.3 436.59 28.24 459.59 96.53 480.02 169.81 508.91 251.49 545.23 254.31 547.83 188.91 544.96 132.81 534.06 81.65 515.18 42.56 495.07 15.42 469.3 6.66 441 14.77 418.53 36.49 400.83 69.9 393.05 109.93 400.96 156.06 424.8 202.81 465.66 246.76 521.11 291.64 586.93 331.53 655.53 365.18 717.94 398.67 765.59 425.98 789.69 446.41Q789.7 446.42 789.7 446.42" opacity="0.36"></path><path d="M715.7 231.65C702.14 262.3 632.46 286.28 536.99 310.8 438.35 344.9 359.19 395.72 308.05 470.71 281.79 560.59 271.86 662.6 264.24 748.52 263.22 791.47 250.57 772.15 219.92 687.85 189.26 577.58 143.52 482 91.41 430.63 45.92 431.16 8.01 467.33 -5.9 512.63 5.07 565.58 51.71 597.72 127.88 604.62 200.88 605.08 258.14 587.49 271.7 556.84 226.63 526.19 149.12 485.38 71.44 431.81 4.98 371.79 -22.55 291.82 -12.85 198.69 22.77 113.21 76.78 44.53 131.75 21.52 191.44 50.41 240.45 133.55 271.1 243.81 306.46 344.01 299.65 241.21 301.1 156.76 331.56 121.94 391.61 118.95 480.53 137.98 580.68 166.57 670.62 200.99 715.69 231.64Q715.7 231.65 715.7 231.65" opacity="0.71"></path><path d="M641.7 343.76C639.31 364.19 608.55 398.24 559.3 443.03 498.22 488.17 434.08 543.08 376 600.79 321.14 651.06 275.86 692.21 240.84 712.35 208.65 708.81 182.5 675.37 162.06 613.85 141.63 540.56 128.84 467.64 125.62 408.08 125.23 365.77 138.62 342.28 166.7 333.12 198 337.22 240.46 344.24 286.56 346.38 320.84 351.22 343.31 345.19 345.7 324.75 321.61 304.32 281.49 271.42 235.85 231.17 184.21 193.62 142.28 154.7 115.47 123.82 95.24 106.2 90.35 108.01 97.51 135.34 108.08 179.93 125.13 244.56 145.57 317.85 166 379.36 187.88 421.09 212.72 439.61 240.97 434.45 277.75 414.97 324.76 391.48 378.35 360.56 441.95 337.54 508.57 327.81 569.19 318.43 617.6 323.32 641.69 343.75Q641.7 343.76 641.7 343.76" opacity="0.09"></path></g></svg>