<svg xmlns="http://www.w3.org/2000/svg" version="1.1" xmlns:xlink="http://www.w3.org/1999/xlink" xmlns:svgjs="http://svgjs.dev/svgjs" viewBox="0 0 640 800" opacity="0.33"><defs><linearGradient x1="50%" y1="0%" x2="50%" y2="100%" id="ssscribble-grad"><stop stop-color="hsl(217, 91%, 60%)" stop-opacity="1" offset="0%"></stop><stop stop-color="hsl(331, 90%, 56%)" stop-opacity="1" offset="100%"></stop></linearGradient></defs><g fill="none" stroke-width="2" stroke="url(#ssscribble-grad)" stroke-linecap="round"><path d="M663.43 168.36C838.61 201.5 924.7 192.17 912.65 161.53 819.8 152.92 674.61 168.47 522.28 249.41 365.86 397.52 239.63 615.79 150.85 845.79 72.44 994.52 18.59 1000.07 -14.54 831.57 -47.68 571.71 -56.96 345.94 -35.98 241.38 -4.63 274.2 69.89 402.21 182.87 548.26 291.76 698.81 401.81 790.72 470.37 822.5 458.13 832.43 358.61 811.84 183.43 778.71 -21.54 745.57 -183.71 703.02 -264.52 635.68 -266.29 546.49 -190.72 402.87 -75.9 208.89 67.27 19.4 201.82 -143.76 306 -200.89 407.04 -120.66 476.21 91.65 509.34 351.5 542.49 520.04 536.47 527.96 492.86 403.53 446.11 197.82 363.28 14.68 263.52 -89.99 192.13 -127.5 151.7 -91.33 177.74 -25.3 282.82 62.75 458.41 135.22 663.37 168.35Q663.43 168.36 663.43 168.36" opacity="0.39"></path><path d="M615.43 19.98C760.63 46.49 850.91 78.66 877.93 126.4 851.55 188.97 778.57 289.67 684.44 433.03 571.88 590.27 465.9 762.77 382.21 903.65 298.84 968.03 240.88 930.57 214.38 783.57 187.87 577.21 195.31 378.54 232.74 242.77 270.49 185.25 335.1 204.78 412.91 267.57 472.3 366.58 517.16 455.93 524.11 511.78 477.66 566.06 376.63 581.63 231.43 555.13 66.98 528.64 -74.18 462.56 -167.85 362.35 -217.95 260.56 -213.38 129.84 -170.42 -3.92 -98.89 -101.47 -16.38 -149.14 56.91 -111.06 134.97 5.24 192.23 193.15 218.74 399.5 245.27 546.53 238.52 594.77 206.4 549.84 179.05 428.4 137.91 284 101.11 161.51 92.89 52.89 116.43 -6.43 185.94 -23.07 299.03 -24.87 450.94 -6.53 615.37 19.97Q615.43 19.98 615.43 19.98" opacity="0.69"></path><path d="M567.43 234.68C679.72 254.56 761.69 303.6 807.74 377.62 825.65 453.53 812.03 554.41 777.61 667.93 727.01 768.77 670.41 858.11 619.87 910.56 565.86 912.8 525.27 854.34 505.39 735.57 485.51 583 488.21 426.82 507.77 296.28 523.85 197.15 549.43 140.99 573.96 120.76 582.33 129.63 574.86 152.06 542.37 170.61 481.75 196.01 391.72 203.21 279.43 183.33 156.23 163.45 44.65 118.36 -42.24 58.51 -129.6 -21.22 -138.67 -71.17 -97.42 30.91 -62.85 146.88 -32.2 295 -12.32 447.57 11.17 599.6 23.39 573.19 45.69 464.28 81.42 376.82 139.81 306.97 223.09 265.52 324.55 225.95 444.19 214.79 567.37 234.67Q567.43 234.68 567.43 234.68" opacity="0.11"></path><path d="M519.43 607.33C664.62 633.83 746.06 725.16 763.44 819.9 750.55 867.09 713.92 834.56 687.42 687.57 660.91 481.21 649.54 285.79 627.68 164.19 575.55 83.61 472.62 45.05 327.43 18.54 162.99 -7.96 33.82 -17.4 -31.98 28.43 -74.91 115.28 -74.54 289.21 -48.03 495.57 -21.53 642.56 26.09 696.58 103.77 684.14 204.33 624.15 354.99 580.82 519.43 607.33Q519.43 607.33 519.43 607.33" opacity="0.82"></path></g></svg>