<svg xmlns="http://www.w3.org/2000/svg" xmlns:xlink="http://www.w3.org/1999/xlink" width="400" zoomAndPan="magnify" viewBox="0 0 300 225" height="300" preserveAspectRatio="xMidYMid meet" version="1.0"><defs><filter x="0%" y="0%" width="100%" height="100%" id="d2f7350282"><feColorMatrix values="0 0 0 0 1 0 0 0 0 1 0 0 0 0 1 0 0 0 1 0" color-interpolation-filters="sRGB"/></filter><mask id="711a60894d"><g filter="url(#d2f7350282)"><rect x="-30" width="360" fill="#000000" y="-22.5" height="270" fill-opacity="0.5"/></g></mask><clipPath id="94ee5aca69"><path d="M 1 1 L 26 1 L 26 26 L 1 26 Z M 1 1 " clip-rule="nonzero"/></clipPath><clipPath id="a97d2c3711"><path d="M 8.480469 0.203125 L 26.28125 8.203125 L 18.28125 26.007812 L 0.480469 18.003906 Z M 8.480469 0.203125 " clip-rule="nonzero"/></clipPath><clipPath id="396d17e77f"><path d="M 11.261719 1.453125 L 23.5 6.953125 C 25.035156 7.644531 25.722656 9.449219 25.03125 10.984375 L 19.53125 23.226562 C 18.839844 24.761719 17.035156 25.445312 15.5 24.757812 L 3.261719 19.253906 C 1.722656 18.566406 1.039062 16.761719 1.730469 15.222656 L 7.230469 2.984375 C 7.921875 1.449219 9.726562 0.761719 11.261719 1.453125 Z M 11.261719 1.453125 " clip-rule="nonzero"/></clipPath><clipPath id="a5e7fa1a6d"><rect x="0" width="27" y="0" height="27"/></clipPath><mask id="89f8d74f12"><g filter="url(#d2f7350282)"><rect x="-30" width="360" fill="#000000" y="-22.5" height="270" fill-opacity="0.5"/></g></mask><clipPath id="bb58437e14"><path d="M 1 1 L 26 1 L 26 25 L 1 25 Z M 1 1 " clip-rule="nonzero"/></clipPath><clipPath id="5fa36f4c61"><path d="M 0.726562 9.796875 L 16.96875 0.355469 L 26.414062 16.597656 L 10.167969 26.042969 Z M 0.726562 9.796875 " clip-rule="nonzero"/></clipPath><clipPath id="5f41c2af69"><path d="M 3.261719 8.320312 L 14.429688 1.828125 C 15.832031 1.015625 17.628906 1.488281 18.445312 2.890625 L 24.9375 14.058594 C 25.75 15.460938 25.277344 17.257812 23.875 18.074219 L 12.707031 24.566406 C 11.304688 25.378906 9.507812 24.90625 8.691406 23.503906 L 2.199219 12.335938 C 1.386719 10.933594 1.859375 9.136719 3.261719 8.320312 Z M 3.261719 8.320312 " clip-rule="nonzero"/></clipPath><clipPath id="f198ff1ceb"><rect x="0" width="27" y="0" height="27"/></clipPath><mask id="9f200c88a0"><g filter="url(#d2f7350282)"><rect x="-30" width="360" fill="#000000" y="-22.5" height="270" fill-opacity="0.5"/></g></mask><clipPath id="55b6e4e305"><path d="M 1 1 L 21.800781 1 L 21.800781 21.640625 L 1 21.640625 Z M 1 1 " clip-rule="nonzero"/></clipPath><clipPath id="735ead4e80"><path d="M 0.929688 2.898438 L 19.601562 0.824219 L 21.679688 19.496094 L 3.003906 21.574219 Z M 0.929688 2.898438 " clip-rule="nonzero"/></clipPath><clipPath id="5e70c14224"><path d="M 3.847656 2.574219 L 16.683594 1.148438 C 18.296875 0.96875 19.746094 2.128906 19.925781 3.742188 L 21.355469 16.578125 C 21.535156 18.191406 20.371094 19.644531 18.761719 19.820312 L 5.921875 21.25 C 4.308594 21.429688 2.859375 20.265625 2.679688 18.65625 L 1.253906 5.816406 C 1.074219 4.207031 2.234375 2.753906 3.847656 2.574219 Z M 3.847656 2.574219 " clip-rule="nonzero"/></clipPath><clipPath id="58e18122b3"><rect x="0" width="22" y="0" height="22"/></clipPath><mask id="d3c388be92"><g filter="url(#d2f7350282)"><rect x="-30" width="360" fill="#000000" y="-22.5" height="270" fill-opacity="0.5"/></g></mask><clipPath id="4894b2ef89"><path d="M 1 1 L 26 1 L 26 26 L 1 26 Z M 1 1 " clip-rule="nonzero"/></clipPath><clipPath id="fb48bf9725"><path d="M 0.53125 13.449219 L 13.816406 0.164062 L 27.105469 13.449219 L 13.816406 26.738281 Z M 0.53125 13.449219 " clip-rule="nonzero"/></clipPath><clipPath id="91d1420c25"><path d="M 2.605469 11.375 L 11.742188 2.242188 C 12.886719 1.09375 14.746094 1.09375 15.894531 2.242188 L 25.027344 11.375 C 26.175781 12.519531 26.175781 14.378906 25.027344 15.527344 L 15.894531 24.660156 C 14.746094 25.808594 12.886719 25.808594 11.742188 24.660156 L 2.605469 15.527344 C 1.460938 14.378906 1.460938 12.519531 2.605469 11.375 Z M 2.605469 11.375 " clip-rule="nonzero"/></clipPath><clipPath id="221d0b6cf7"><rect x="0" width="28" y="0" height="27"/></clipPath><mask id="a96112d0d5"><g filter="url(#d2f7350282)"><rect x="-30" width="360" fill="#000000" y="-22.5" height="270" fill-opacity="0.5"/></g></mask><clipPath id="6e09132e90"><path d="M 1 1 L 25 1 L 25 26 L 1 26 Z M 1 1 " clip-rule="nonzero"/></clipPath><clipPath id="194fc9f473"><path d="M 0.285156 9.972656 L 16.53125 0.527344 L 25.972656 16.769531 L 9.730469 26.214844 Z M 0.285156 9.972656 " clip-rule="nonzero"/></clipPath><clipPath id="89e4be07a1"><path d="M 2.824219 8.496094 L 13.992188 2.003906 C 15.394531 1.1875 17.191406 1.664062 18.007812 3.066406 L 24.5 14.234375 C 25.3125 15.636719 24.835938 17.433594 23.4375 18.246094 L 12.269531 24.738281 C 10.867188 25.554688 9.070312 25.078125 8.253906 23.675781 L 1.761719 12.507812 C 0.945312 11.105469 1.421875 9.308594 2.824219 8.496094 Z M 2.824219 8.496094 " clip-rule="nonzero"/></clipPath><clipPath id="3149840c2d"><rect x="0" width="26" y="0" height="27"/></clipPath><mask id="28354049d3"><g filter="url(#d2f7350282)"><rect x="-30" width="360" fill="#000000" y="-22.5" height="270" fill-opacity="0.5"/></g></mask><clipPath id="c3c5575938"><path d="M 2 1 L 26 1 L 26 26 L 2 26 Z M 2 1 " clip-rule="nonzero"/></clipPath><clipPath id="8e941c75d6"><path d="M 0.949219 10.355469 L 17.195312 0.910156 L 26.636719 17.15625 L 10.394531 26.597656 Z M 0.949219 10.355469 " clip-rule="nonzero"/></clipPath><clipPath id="eeb6dcb850"><path d="M 3.488281 8.878906 L 14.65625 2.386719 C 16.058594 1.570312 17.855469 2.046875 18.667969 3.449219 L 25.164062 14.617188 C 25.976562 16.019531 25.5 17.816406 24.101562 18.628906 L 12.933594 25.121094 C 11.53125 25.9375 9.734375 25.460938 8.917969 24.058594 L 2.425781 12.890625 C 1.609375 11.492188 2.085938 9.695312 3.488281 8.878906 Z M 3.488281 8.878906 " clip-rule="nonzero"/></clipPath><clipPath id="ed81ebfda8"><rect x="0" width="27" y="0" height="27"/></clipPath><mask id="f3c9c502ad"><g filter="url(#d2f7350282)"><rect x="-30" width="360" fill="#000000" y="-22.5" height="270" fill-opacity="0.5"/></g></mask><clipPath id="915702b62a"><path d="M 1 1 L 26 1 L 26 25 L 1 25 Z M 1 1 " clip-rule="nonzero"/></clipPath><clipPath id="17f13386cd"><path d="M 0.65625 9.75 L 16.898438 0.304688 L 26.34375 16.546875 L 10.097656 25.992188 Z M 0.65625 9.75 " clip-rule="nonzero"/></clipPath><clipPath id="354192d6b2"><path d="M 3.195312 8.273438 L 14.363281 1.78125 C 15.761719 0.964844 17.558594 1.441406 18.375 2.84375 L 24.867188 14.011719 C 25.683594 15.414062 25.207031 17.210938 23.804688 18.023438 L 12.636719 24.515625 C 11.234375 25.332031 9.4375 24.855469 8.625 23.453125 L 2.132812 12.285156 C 1.316406 10.882812 1.792969 9.085938 3.195312 8.273438 Z M 3.195312 8.273438 " clip-rule="nonzero"/></clipPath><clipPath id="f1d8c0bd7e"><rect x="0" width="27" y="0" height="27"/></clipPath><mask id="1db6326847"><g filter="url(#d2f7350282)"><rect x="-30" width="360" fill="#000000" y="-22.5" height="270" fill-opacity="0.5"/></g></mask><clipPath id="da570aa682"><path d="M 1 1 L 26 1 L 26 25 L 1 25 Z M 1 1 " clip-rule="nonzero"/></clipPath><clipPath id="68b2ad3337"><path d="M 0.550781 9.757812 L 16.796875 0.316406 L 26.238281 16.558594 L 9.996094 26.003906 Z M 0.550781 9.757812 " clip-rule="nonzero"/></clipPath><clipPath id="6f950c8dd6"><path d="M 3.089844 8.28125 L 14.257812 1.789062 C 15.660156 0.976562 17.457031 1.449219 18.273438 2.851562 L 24.765625 14.019531 C 25.578125 15.421875 25.105469 17.21875 23.703125 18.035156 L 12.535156 24.527344 C 11.132812 25.339844 9.335938 24.867188 8.519531 23.464844 L 2.027344 12.296875 C 1.214844 10.894531 1.6875 9.097656 3.089844 8.28125 Z M 3.089844 8.28125 " clip-rule="nonzero"/></clipPath><clipPath id="1b2c8cd4d6"><rect x="0" width="27" y="0" height="27"/></clipPath><mask id="687d6bafb5"><g filter="url(#d2f7350282)"><rect x="-30" width="360" fill="#000000" y="-22.5" height="270" fill-opacity="0.5"/></g></mask><clipPath id="e32198e19b"><path d="M 1 1 L 27 1 L 27 26 L 1 26 Z M 1 1 " clip-rule="nonzero"/></clipPath><clipPath id="d71690016d"><path d="M 0.964844 9.011719 L 18.539062 0.519531 L 27.03125 18.089844 L 9.457031 26.582031 Z M 0.964844 9.011719 " clip-rule="nonzero"/></clipPath><clipPath id="94a5da459c"><path d="M 3.710938 7.683594 L 15.792969 1.84375 C 17.308594 1.113281 19.132812 1.75 19.867188 3.265625 L 25.703125 15.347656 C 26.4375 16.863281 25.800781 18.6875 24.285156 19.417969 L 12.203125 25.257812 C 10.6875 25.988281 8.863281 25.355469 8.132812 23.839844 L 2.292969 11.757812 C 1.558594 10.242188 2.195312 8.417969 3.710938 7.683594 Z M 3.710938 7.683594 " clip-rule="nonzero"/></clipPath><clipPath id="441677d18b"><rect x="0" width="28" y="0" height="27"/></clipPath><mask id="78bb55cfec"><g filter="url(#d2f7350282)"><rect x="-30" width="360" fill="#000000" y="-22.5" height="270" fill-opacity="0.5"/></g></mask><clipPath id="6dda1d5dac"><path d="M 0.277344 0.390625 L 19.792969 0.390625 L 19.792969 19.90625 L 0.277344 19.90625 Z M 0.277344 0.390625 " clip-rule="nonzero"/></clipPath><clipPath id="fa262873c8"><path d="M 3.324219 0.390625 L 16.742188 0.390625 C 18.429688 0.390625 19.792969 1.753906 19.792969 3.4375 L 19.792969 16.859375 C 19.792969 18.542969 18.429688 19.90625 16.742188 19.90625 L 3.324219 19.90625 C 1.640625 19.90625 0.277344 18.542969 0.277344 16.859375 L 0.277344 3.4375 C 0.277344 1.753906 1.640625 0.390625 3.324219 0.390625 Z M 3.324219 0.390625 " clip-rule="nonzero"/></clipPath><clipPath id="39b85fe720"><rect x="0" width="20" y="0" height="21"/></clipPath><mask id="36c776a6b5"><g filter="url(#d2f7350282)"><rect x="-30" width="360" fill="#000000" y="-22.5" height="270" fill-opacity="0.5"/></g></mask><clipPath id="56b1d46d93"><path d="M 0.714844 1.035156 L 20.234375 1.035156 L 20.234375 20.550781 L 0.714844 20.550781 Z M 0.714844 1.035156 " clip-rule="nonzero"/></clipPath><clipPath id="8fae934f4f"><path d="M 3.765625 1.035156 L 17.183594 1.035156 C 18.867188 1.035156 20.234375 2.398438 20.234375 4.082031 L 20.234375 17.5 C 20.234375 19.1875 18.867188 20.550781 17.183594 20.550781 L 3.765625 20.550781 C 2.082031 20.550781 0.714844 19.1875 0.714844 17.5 L 0.714844 4.082031 C 0.714844 2.398438 2.082031 1.035156 3.765625 1.035156 Z M 3.765625 1.035156 " clip-rule="nonzero"/></clipPath><clipPath id="79b7e252f5"><rect x="0" width="21" y="0" height="21"/></clipPath><mask id="b5292bc676"><g filter="url(#d2f7350282)"><rect x="-30" width="360" fill="#000000" y="-22.5" height="270" fill-opacity="0.5"/></g></mask><clipPath id="e7f25dfa2c"><path d="M 0.589844 1.046875 L 20.105469 1.046875 L 20.105469 20.5625 L 0.589844 20.5625 Z M 0.589844 1.046875 " clip-rule="nonzero"/></clipPath><clipPath id="0d1f707ca0"><path d="M 3.640625 1.046875 L 17.058594 1.046875 C 18.742188 1.046875 20.105469 2.414062 20.105469 4.097656 L 20.105469 17.515625 C 20.105469 19.199219 18.742188 20.5625 17.058594 20.5625 L 3.640625 20.5625 C 1.957031 20.5625 0.589844 19.199219 0.589844 17.515625 L 0.589844 4.097656 C 0.589844 2.414062 1.957031 1.046875 3.640625 1.046875 Z M 3.640625 1.046875 " clip-rule="nonzero"/></clipPath><clipPath id="6a52f98b27"><rect x="0" width="21" y="0" height="21"/></clipPath><mask id="e4d15c8d4a"><g filter="url(#d2f7350282)"><rect x="-30" width="360" fill="#000000" y="-22.5" height="270" fill-opacity="0.5"/></g></mask><clipPath id="5ce9ab1293"><path d="M 0.867188 0.96875 L 20.386719 0.96875 L 20.386719 20.488281 L 0.867188 20.488281 Z M 0.867188 0.96875 " clip-rule="nonzero"/></clipPath><clipPath id="9b05ab54a2"><path d="M 3.917969 0.96875 L 17.335938 0.96875 C 19.019531 0.96875 20.386719 2.335938 20.386719 4.019531 L 20.386719 17.4375 C 20.386719 19.121094 19.019531 20.488281 17.335938 20.488281 L 3.917969 20.488281 C 2.234375 20.488281 0.867188 19.121094 0.867188 17.4375 L 0.867188 4.019531 C 0.867188 2.335938 2.234375 0.96875 3.917969 0.96875 Z M 3.917969 0.96875 " clip-rule="nonzero"/></clipPath><clipPath id="f55612f9f8"><rect x="0" width="21" y="0" height="21"/></clipPath><mask id="8ad7f9d0d1"><g filter="url(#d2f7350282)"><rect x="-30" width="360" fill="#000000" y="-22.5" height="270" fill-opacity="0.5"/></g></mask><clipPath id="4e21a0ed36"><path d="M 0.503906 0.65625 L 20.019531 0.65625 L 20.019531 20.171875 L 0.503906 20.171875 Z M 0.503906 0.65625 " clip-rule="nonzero"/></clipPath><clipPath id="bdce1f8e67"><path d="M 3.550781 0.65625 L 16.96875 0.65625 C 18.65625 0.65625 20.019531 2.023438 20.019531 3.707031 L 20.019531 17.125 C 20.019531 18.808594 18.65625 20.171875 16.96875 20.171875 L 3.550781 20.171875 C 1.867188 20.171875 0.503906 18.808594 0.503906 17.125 L 0.503906 3.707031 C 0.503906 2.023438 1.867188 0.65625 3.550781 0.65625 Z M 3.550781 0.65625 " clip-rule="nonzero"/></clipPath><clipPath id="554e6735a5"><rect x="0" width="21" y="0" height="21"/></clipPath></defs><g mask="url(#711a60894d)"><g transform="matrix(1, 0, 0, 1, 103, 58)"><g clip-path="url(#a5e7fa1a6d)"><g clip-path="url(#94ee5aca69)"><g clip-path="url(#a97d2c3711)"><g clip-path="url(#396d17e77f)"><path fill="#ff6600" d="M 8.480469 0.203125 L 26.28125 8.203125 L 18.28125 26.007812 L 0.480469 18.003906 Z M 8.480469 0.203125 " fill-opacity="1" fill-rule="nonzero"/></g></g></g></g></g></g><g mask="url(#89f8d74f12)"><g transform="matrix(1, 0, 0, 1, 25, 15)"><g clip-path="url(#f198ff1ceb)"><g clip-path="url(#bb58437e14)"><g clip-path="url(#5fa36f4c61)"><g clip-path="url(#5f41c2af69)"><path fill="#3b82f6" d="M 0.726562 9.796875 L 16.96875 0.355469 L 26.414062 16.597656 L 10.167969 26.042969 Z M 0.726562 9.796875 " fill-opacity="1" fill-rule="nonzero"/></g></g></g></g></g></g><g mask="url(#9f200c88a0)"><g transform="matrix(1, 0, 0, 1, 133, 17)"><g clip-path="url(#58e18122b3)"><g clip-path="url(#55b6e4e305)"><g clip-path="url(#735ead4e80)"><g clip-path="url(#5e70c14224)"><path fill="#3b82f6" d="M 0.929688 2.898438 L 19.601562 0.824219 L 21.679688 19.496094 L 3.003906 21.574219 Z M 0.929688 2.898438 " fill-opacity="1" fill-rule="nonzero"/></g></g></g></g></g></g><g mask="url(#d3c388be92)"><g transform="matrix(1, 0, 0, 1, 185, 65)"><g clip-path="url(#221d0b6cf7)"><g clip-path="url(#4894b2ef89)"><g clip-path="url(#fb48bf9725)"><g clip-path="url(#91d1420c25)"><path fill="#3b82f6" d="M 0.53125 13.449219 L 13.816406 0.164062 L 27.105469 13.449219 L 13.816406 26.738281 Z M 0.53125 13.449219 " fill-opacity="1" fill-rule="nonzero"/></g></g></g></g></g></g><g mask="url(#a96112d0d5)"><g transform="matrix(1, 0, 0, 1, 16, 139)"><g clip-path="url(#3149840c2d)"><g clip-path="url(#6e09132e90)"><g clip-path="url(#194fc9f473)"><g clip-path="url(#89e4be07a1)"><path fill="#3b82f6" d="M 0.285156 9.972656 L 16.53125 0.527344 L 25.972656 16.769531 L 9.730469 26.214844 Z M 0.285156 9.972656 " fill-opacity="1" fill-rule="nonzero"/></g></g></g></g></g></g><g mask="url(#28354049d3)"><g transform="matrix(1, 0, 0, 1, 79, 123)"><g clip-path="url(#ed81ebfda8)"><g clip-path="url(#c3c5575938)"><g clip-path="url(#8e941c75d6)"><g clip-path="url(#eeb6dcb850)"><path fill="#3b82f6" d="M 0.949219 10.355469 L 17.195312 0.910156 L 26.636719 17.15625 L 10.394531 26.597656 Z M 0.949219 10.355469 " fill-opacity="1" fill-rule="nonzero"/></g></g></g></g></g></g><g mask="url(#f3c9c502ad)"><g transform="matrix(1, 0, 0, 1, 232, 95)"><g clip-path="url(#f1d8c0bd7e)"><g clip-path="url(#915702b62a)"><g clip-path="url(#17f13386cd)"><g clip-path="url(#354192d6b2)"><path fill="#3b82f6" d="M 0.65625 9.75 L 16.898438 0.304688 L 26.34375 16.546875 L 10.097656 25.992188 Z M 0.65625 9.75 " fill-opacity="1" fill-rule="nonzero"/></g></g></g></g></g></g><g mask="url(#1db6326847)"><g transform="matrix(1, 0, 0, 1, 159, 186)"><g clip-path="url(#1b2c8cd4d6)"><g clip-path="url(#da570aa682)"><g clip-path="url(#68b2ad3337)"><g clip-path="url(#6f950c8dd6)"><path fill="#3b82f6" d="M 0.550781 9.757812 L 16.796875 0.316406 L 26.238281 16.558594 L 9.996094 26.003906 Z M 0.550781 9.757812 " fill-opacity="1" fill-rule="nonzero"/></g></g></g></g></g></g><g mask="url(#687d6bafb5)"><g transform="matrix(1, 0, 0, 1, 43, 70)"><g clip-path="url(#441677d18b)"><g clip-path="url(#e32198e19b)"><g clip-path="url(#d71690016d)"><g clip-path="url(#94a5da459c)"><path fill="#ff6600" d="M 0.964844 9.011719 L 18.539062 0.519531 L 27.03125 18.089844 L 9.457031 26.582031 Z M 0.964844 9.011719 " fill-opacity="1" fill-rule="nonzero"/></g></g></g></g></g></g><g mask="url(#78bb55cfec)"><g transform="matrix(1, 0, 0, 1, 73, 193)"><g clip-path="url(#39b85fe720)"><g clip-path="url(#6dda1d5dac)"><g clip-path="url(#fa262873c8)"><path fill="#ff6600" d="M 0.277344 0.390625 L 19.792969 0.390625 L 19.792969 19.90625 L 0.277344 19.90625 Z M 0.277344 0.390625 " fill-opacity="1" fill-rule="nonzero"/></g></g></g></g></g><g mask="url(#36c776a6b5)"><g transform="matrix(1, 0, 0, 1, 154, 115)"><g clip-path="url(#79b7e252f5)"><g clip-path="url(#56b1d46d93)"><g clip-path="url(#8fae934f4f)"><path fill="#ff6600" d="M 0.714844 1.035156 L 20.234375 1.035156 L 20.234375 20.550781 L 0.714844 20.550781 Z M 0.714844 1.035156 " fill-opacity="1" fill-rule="nonzero"/></g></g></g></g></g><g mask="url(#b5292bc676)"><g transform="matrix(1, 0, 0, 1, 202, 20)"><g clip-path="url(#6a52f98b27)"><g clip-path="url(#e7f25dfa2c)"><g clip-path="url(#0d1f707ca0)"><path fill="#ff6600" d="M 0.589844 1.046875 L 20.105469 1.046875 L 20.105469 20.5625 L 0.589844 20.5625 Z M 0.589844 1.046875 " fill-opacity="1" fill-rule="nonzero"/></g></g></g></g></g><g mask="url(#e4d15c8d4a)"><g transform="matrix(1, 0, 0, 1, 263, 37)"><g clip-path="url(#f55612f9f8)"><g clip-path="url(#5ce9ab1293)"><g clip-path="url(#9b05ab54a2)"><path fill="#ff6600" d="M 0.867188 0.96875 L 20.386719 0.96875 L 20.386719 20.488281 L 0.867188 20.488281 Z M 0.867188 0.96875 " fill-opacity="1" fill-rule="nonzero"/></g></g></g></g></g><g mask="url(#8ad7f9d0d1)"><g transform="matrix(1, 0, 0, 1, 229, 163)"><g clip-path="url(#554e6735a5)"><g clip-path="url(#4e21a0ed36)"><g clip-path="url(#bdce1f8e67)"><path fill="#ff6600" d="M 0.503906 0.65625 L 20.019531 0.65625 L 20.019531 20.171875 L 0.503906 20.171875 Z M 0.503906 0.65625 " fill-opacity="1" fill-rule="nonzero"/></g></g></g></g></g></svg>