<svg xmlns="http://www.w3.org/2000/svg" version="1.1" xmlns:xlink="http://www.w3.org/1999/xlink" xmlns:svgjs="http://svgjs.dev/svgjs" viewBox="0 0 800 800" opacity="0.43"><defs><filter id="bbburst-blur-1" x="-100%" y="-100%" width="400%" height="400%"><feGaussianBlur in="SourceGraphic" stdDeviation="1"></feGaussianBlur></filter><filter id="bbburst-blur-2" x="-100%" y="-100%" width="400%" height="400%"><feGaussianBlur in="SourceGraphic" stdDeviation="2"></feGaussianBlur></filter><filter id="bbburst-blur-3" x="-100%" y="-100%" width="400%" height="400%"><feGaussianBlur in="SourceGraphic" stdDeviation="4"></feGaussianBlur></filter><filter id="bbburst-blur-4" x="-100%" y="-100%" width="400%" height="400%"><feGaussianBlur in="SourceGraphic" stdDeviation="12"></feGaussianBlur></filter><symbol id="bbburst-shape-9" viewBox="0 0 182 172"><path d="M13.5809 69.845 91 13.5967l77.419 56.2483-29.571 91.012H43.1524L13.5809 69.845Z" stroke-width="22"></path></symbol><symbol id="bbburst-shape-10" viewBox="0 0 145 145"><circle cx="72.5" cy="72.5" r="61.5" fill="none" stroke-width="22"></circle></symbol><symbol id="bbburst-shape-11" viewBox="0 0 194 167"><path d="M10.398 161 97 11l86.603 150H10.397Z" stroke-width="11"></path></symbol><symbol id="bbburst-shape-13" viewBox="0 0 159 159"><path stroke-width="22" d="M11 11h137v137H11z"></path></symbol></defs><use xlink:href="#bbburst-shape-10" width="28.50116891805362" opacity="0.12870385084805014" transform="matrix(1.1519653188313663,-0.48525859519409686,0.48525859519409686,1.1519653188313663,-176.12610266349873,87.76661132289917)" fill="none" stroke="#ff6600" filter="url(#bbburst-blur-3)"></use><use xlink:href="#bbburst-shape-9" width="28.72604967003147" opacity="0.3934149115975303" transform="matrix(0.9822339168978491,-0.18766068446936146,0.18766068446936146,0.9822339168978491,583.6446516783426,17.36662850334983)" fill="none" stroke="#3b82f6" filter="url(#bbburst-blur-2)"></use><use xlink:href="#bbburst-shape-9" width="15.952545914001064" opacity="0.7121771615231813" transform="matrix(0.9950411797905888,-0.09946381513371169,0.09946381513371169,0.9950411797905888,299.0334657828845,120.74480143265964)" fill="none" stroke="#3b82f6" filter="url(#bbburst-blur-1)"></use><use xlink:href="#bbburst-shape-10" width="12.897083526426167" opacity="0.8633262883776127" transform="matrix(0.8357060120807954,0.5491770765172317,-0.5491770765172317,0.8357060120807954,664.4915604309326,26.657016340441032)" fill="none" stroke="#ff6600"></use><use xlink:href="#bbburst-shape-13" width="36.449400118129105" opacity="0.3260506518340478" transform="matrix(1.1820578899680483,-0.4064961805039322,0.4064961805039322,1.1820578899680483,316.4886602143176,-351.51051612157863)" fill="none" stroke="#ff6600" filter="url(#bbburst-blur-3)"></use><use xlink:href="#bbburst-shape-9" width="26.010924812159846" opacity="-0.08394304326105906" transform="matrix(1.325886889691955,-1.1421575879636723,1.1421575879636723,1.325886889691955,252.86295188990636,246.0454173624355)" fill="none" stroke="#3b82f6" filter="url(#bbburst-blur-4)"></use><use xlink:href="#bbburst-shape-13" width="23.665932734238446" opacity="0.5993997964155617" transform="matrix(0.9559698061682897,0.29346503998698464,-0.29346503998698464,0.9559698061682897,539.1233876136171,191.35422311565952)" fill="none" stroke="#3b82f6" filter="url(#bbburst-blur-1)"></use><use xlink:href="#bbburst-shape-11" width="34.85645143491378" opacity="0.14573705443438145" transform="matrix(1.1749364019454487,0.42664323665503384,-0.42664323665503384,1.1749364019454487,913.7120708243649,-203.48220050444536)" fill="none" stroke="#ff6600" filter="url(#bbburst-blur-3)"></use><use xlink:href="#bbburst-shape-10" width="38.020428274542574" opacity="0.024904422372911017" transform="matrix(1.7170799729135156,0.33784074150303584,-0.33784074150303584,1.7170799729135156,765.9137548431677,-644.1809650681065)" fill="none" stroke="#3b82f6" filter="url(#bbburst-blur-4)"></use><use xlink:href="#bbburst-shape-10" width="17.139069325628668" opacity="0.8229854426700598" transform="matrix(0.9679000676630581,-0.2513353517073305,0.2513353517073305,0.9679000676630581,330.5606384103454,-54.242435144378135)" fill="none" stroke="#3b82f6"></use><use xlink:href="#bbburst-shape-10" width="19.05222624590535" opacity="0.751716151413248" transform="matrix(0.8752437830118793,0.48368204463165093,-0.48368204463165093,0.8752437830118793,611.1538349932663,-63.361050991923776)" fill="none" stroke="#3b82f6" filter="url(#bbburst-blur-1)"></use><use xlink:href="#bbburst-shape-10" width="14.466732840727461" opacity="0.882026279810128" transform="matrix(0.8391999203542546,0.5438230352581737,-0.5438230352581737,0.8391999203542546,584.185291317239,14.839675469213887)" fill="none" stroke="#ff6600"></use><use xlink:href="#bbburst-shape-9" width="25.64250074575752" opacity="0.1917646487005098" transform="matrix(1.2237155512504763,-0.2549906853744728,0.2549906853744728,1.2237155512504763,-80.92501905247371,-105.6975114193657)" fill="none" stroke="#3b82f6" filter="url(#bbburst-blur-3)"></use><use xlink:href="#bbburst-shape-9" width="49.008752819328876" opacity="-0.08314091251625233" transform="matrix(1.3787695750515399,1.077726523247988,-1.077726523247988,1.3787695750515399,449.115276090886,162.34435319997272)" fill="none" stroke="#ff6600" filter="url(#bbburst-blur-4)"></use><use xlink:href="#bbburst-shape-9" width="15.358020164192743" opacity="0.7662431334821396" transform="matrix(0.9013541032303196,-0.4330828795852664,0.4330828795852664,0.9013541032303196,315.44625442546976,-1.092315566743821)" fill="none" stroke="#3b82f6" filter="url(#bbburst-blur-1)"></use><use xlink:href="#bbburst-shape-13" width="19.13871127891979" opacity="0.6166315716232758" transform="matrix(0.9449204710978957,-0.3273000203179505,0.3273000203179505,0.9449204710978957,395.86133671845107,131.52948661505803)" fill="none" stroke="#ff6600" filter="url(#bbburst-blur-1)"></use><use xlink:href="#bbburst-shape-13" width="25.47467327756316" opacity="0.7378222709657549" transform="matrix(0.9083776673594691,0.4181507066149352,-0.4181507066149352,0.9083776673594691,576.5650760708771,147.44130328807404)" fill="none" stroke="#ff6600" filter="url(#bbburst-blur-1)"></use><use xlink:href="#bbburst-shape-9" width="17.663270944420294" opacity="0.7345874338840448" transform="matrix(0.782100126777642,-0.623152783588741,0.623152783588741,0.782100126777642,245.1801807236784,155.64410049768594)" fill="none" stroke="#ff6600" filter="url(#bbburst-blur-1)"></use><use xlink:href="#bbburst-shape-13" width="35.741478285677694" opacity="0.31165289066652524" transform="matrix(1.245469698739698,0.1063260528809669,-0.1063260528809669,1.245469698739698,653.0173171259208,104.31101305331691)" fill="none" stroke="#ff6600" filter="url(#bbburst-blur-3)"></use><use xlink:href="#bbburst-shape-10" width="31.165097069601547" opacity="0.1422018802035967" transform="matrix(0.9397470544021214,0.824242363472381,-0.824242363472381,0.9397470544021214,1056.0222702802223,192.20826499159818)" fill="none" stroke="#ff6600" filter="url(#bbburst-blur-3)"></use><use xlink:href="#bbburst-shape-9" width="28.117065837465326" opacity="0.1342823859329586" transform="matrix(1.1228820966783546,-0.5492137989519401,0.5492137989519401,1.1228820966783546,308.94277094729125,-403.4200084264571)" fill="none" stroke="#3b82f6" filter="url(#bbburst-blur-3)"></use><use xlink:href="#bbburst-shape-13" width="22.839288967181854" opacity="0.15224796422704623" transform="matrix(1.1045451907585977,-0.5852178411258947,0.5852178411258947,1.1045451907585977,46.8827754949304,-401.48045882908275)" fill="none" stroke="#ff6600" filter="url(#bbburst-blur-3)"></use><use xlink:href="#bbburst-shape-9" width="13.981089062021116" opacity="0.9737336213046542" transform="matrix(0.962685465953775,0.27062278847385174,-0.27062278847385174,0.962685465953775,512.6814007613535,8.982423563388238)" fill="none" stroke="#3b82f6"></use><use xlink:href="#bbburst-shape-9" width="22.837137591086858" opacity="0.647880707059028" transform="matrix(0.7607201636954403,-0.6490799893288828,0.6490799893288828,0.7607201636954403,107.58748829424007,259.6328347646978)" fill="none" stroke="#ff6600" filter="url(#bbburst-blur-1)"></use><use xlink:href="#bbburst-shape-10" width="30.496259791467647" opacity="0.5588875602487269" transform="matrix(0.8854386643579809,-0.46475624972662266,0.46475624972662266,0.8854386643579809,74.08761921113239,205.8754560766563)" fill="none" stroke="#ff6600" filter="url(#bbburst-blur-1)"></use><use xlink:href="#bbburst-shape-9" width="43.526718487209195" opacity="-0.09258884307349935" transform="matrix(1.439363476096985,-0.9953556066441804,0.9953556066441804,1.439363476096985,325.79515968501414,-494.0864038378995)" fill="none" stroke="#ff6600" filter="url(#bbburst-blur-4)"></use><use xlink:href="#bbburst-shape-9" width="32.52223075965432" opacity="0.5188358198936049" transform="matrix(0.9613049457918004,0.2754864809681662,-0.2754864809681662,0.9613049457918004,314.7268380339657,-109.71109379926816)" fill="none" stroke="#ff6600" filter="url(#bbburst-blur-2)"></use><use xlink:href="#bbburst-shape-13" width="29.86212825997557" opacity="0.5668302314953787" transform="matrix(0.7958045980412338,0.6055535003089573,-0.6055535003089573,0.7958045980412338,825.2019334072513,67.65515963329392)" fill="none" stroke="#3b82f6" filter="url(#bbburst-blur-1)"></use><use xlink:href="#bbburst-shape-10" width="18.240576788582512" opacity="0.9193883801560566" transform="matrix(0.9427134671289089,-0.33360353549354305,0.33360353549354305,0.9427134671289089,244.50434091495154,59.64422871016092)" fill="none" stroke="#ff6600"></use><use xlink:href="#bbburst-shape-10" width="26.453862694471912" opacity="0.7392719602315219" transform="matrix(0.9918909876837351,0.12709157545559238,-0.12709157545559238,0.9918909876837351,325.60529016297113,-33.03141669664393)" fill="none" stroke="#ff6600" filter="url(#bbburst-blur-1)"></use><use xlink:href="#bbburst-shape-9" width="34.10996095926526" opacity="0.3496384200289405" transform="matrix(0.8685752355789657,0.49555732275786657,-0.49555732275786657,0.8685752355789657,855.0414246501855,153.14025016312365)" fill="none" stroke="#ff6600" filter="url(#bbburst-blur-2)"></use><use xlink:href="#bbburst-shape-10" width="48.30545705715771" opacity="0.07818073555031957" transform="matrix(1.7382493259713139,0.20245809630704617,-0.20245809630704617,1.7382493259713139,783.6400209768522,-531.0524023874116)" fill="none" stroke="#ff6600" filter="url(#bbburst-blur-4)"></use><use xlink:href="#bbburst-shape-9" width="28.37006354641885" opacity="0.05087735258723003" transform="matrix(1.6453532293743798,0.5960811610739761,-0.5960811610739761,1.6453532293743798,382.0062116495167,-624.7328336524181)" fill="none" stroke="#ff6600" filter="url(#bbburst-blur-4)"></use><use xlink:href="#bbburst-shape-10" width="13.928782759915004" opacity="0.9065895399210921" transform="matrix(0.8921938497916252,-0.4516526700839915,0.4516526700839915,0.8921938497916252,255.1374005976351,47.64772275179979)" fill="none" stroke="#ff6600"></use><use xlink:href="#bbburst-shape-9" width="25.55435778027649" opacity="0.3134657694603803" transform="matrix(1.2433320179597083,-0.12893988179085533,0.12893988179085533,1.2433320179597083,262.1916408360845,-396.7295408563637)" fill="none" stroke="#3b82f6" filter="url(#bbburst-blur-3)"></use><use xlink:href="#bbburst-shape-9" width="29.189921492546056" opacity="0.3998308135922559" transform="matrix(0.7850045335079509,-0.6194900179760481,0.6194900179760481,0.7850045335079509,-11.097089031642952,318.31640895857976)" fill="none" stroke="#ff6600" filter="url(#bbburst-blur-2)"></use><use xlink:href="#bbburst-shape-9" width="30.036016512741263" opacity="0.3104536061494677" transform="matrix(1.2125624038353064,0.30363204179589365,-0.30363204179589365,1.2125624038353064,796.6036609077523,-191.1164315584465)" fill="none" stroke="#3b82f6" filter="url(#bbburst-blur-3)"></use><use xlink:href="#bbburst-shape-9" width="16.891964349626697" opacity="0.7851190755494727" transform="matrix(0.940776288375053,0.339027985911575,-0.339027985911575,0.940776288375053,467.08709442205696,-54.618882467838034)" fill="none" stroke="#ff6600"></use><use xlink:href="#bbburst-shape-11" width="31.221323425510512" opacity="0.6001563334187333" transform="matrix(0.7383348227584781,-0.6744343478072619,0.6744343478072619,0.7383348227584781,-53.04744577829436,60.395045274081326)" fill="none" stroke="#ff6600" filter="url(#bbburst-blur-1)"></use><use xlink:href="#bbburst-shape-10" width="17.043256353811262" opacity="0.758860282833101" transform="matrix(0.8153520406054257,-0.5789654997325561,0.5789654997325561,0.8153520406054257,268.84610235447064,94.42898843375167)" fill="none" stroke="#3b82f6" filter="url(#bbburst-blur-1)"></use><use xlink:href="#bbburst-shape-9" width="27.525573782895975" opacity="0.5754503738540332" transform="matrix(0.7785263743657123,-0.6276118899582598,0.6276118899582598,0.7785263743657123,-30.84378576716537,186.23947998417555)" fill="none" stroke="#ff6600" filter="url(#bbburst-blur-1)"></use><use xlink:href="#bbburst-shape-13" width="17.305292965333997" opacity="0.8309277652538567" transform="matrix(0.9064079939882299,0.4224033006905047,-0.4224033006905047,0.9064079939882299,636.8099880490341,26.078309677292907)" fill="none" stroke="#3b82f6"></use><use xlink:href="#bbburst-shape-11" width="15.213657446636644" opacity="0.816861040437051" transform="matrix(0.8348700163973699,0.5504471416227495,-0.5504471416227495,0.8348700163973699,555.5739952371573,119.88789210722706)" fill="none" stroke="#3b82f6"></use><use xlink:href="#bbburst-shape-9" width="26.545404816404208" opacity="0.6822925935063366" transform="matrix(0.9431763300337689,0.33229265785453505,-0.33229265785453505,0.9431763300337689,378.388627885967,34.15743146248366)" fill="none" stroke="#ff6600" filter="url(#bbburst-blur-1)"></use><use xlink:href="#bbburst-shape-10" width="14.761618009084003" opacity="0.8907721333626241" transform="matrix(0.9998678976660749,0.01625383698772839,-0.01625383698772839,0.9998678976660749,352.37417771978795,15.119734731841106)" fill="none" stroke="#3b82f6"></use><use xlink:href="#bbburst-shape-10" width="30.794425054752317" opacity="0.4058129476273947" transform="matrix(0.9986808619616352,-0.051347209773904626,0.051347209773904626,0.9986808619616352,588.645079802549,-143.8255094609962)" fill="none" stroke="#3b82f6" filter="url(#bbburst-blur-2)"></use><use xlink:href="#bbburst-shape-9" width="30.23173054701894" opacity="0.5266282283104842" transform="matrix(0.9999387193849295,0.011070567954139032,-0.011070567954139032,0.9999387193849295,355.7511736178208,-210.70295018600635)" fill="none" stroke="#ff6600" filter="url(#bbburst-blur-2)"></use><use xlink:href="#bbburst-shape-13" width="39.669006224749296" opacity="0.41586408850865264" transform="matrix(0.8504107159393481,-0.5261193915980719,0.5261193915980719,0.8504107159393481,-85.71891462898355,22.068065361134188)" fill="none" stroke="#ff6600" filter="url(#bbburst-blur-2)"></use><use xlink:href="#bbburst-shape-9" width="27.96051091002817" opacity="0.1967432593784072" transform="matrix(0.9058054366579305,0.8614038024764785,-0.8614038024764785,0.9058054366579305,755.8285212713179,-335.21880999306137)" fill="none" stroke="#3b82f6" filter="url(#bbburst-blur-3)"></use><use xlink:href="#bbburst-shape-10" width="22.846200863656804" opacity="0.6432506521204275" transform="matrix(0.7672440017444877,-0.6413553163318322,0.6413553163318322,0.7672440017444877,136.7721574583324,-60.09508397666252)" fill="none" stroke="#ff6600" filter="url(#bbburst-blur-1)"></use><use xlink:href="#bbburst-shape-10" width="33.14042338742262" opacity="0.33169903566852577" transform="matrix(1.0277442442190379,0.7115066889879805,-0.7115066889879805,1.0277442442190379,720.5718481809826,273.14103787974597)" fill="none" stroke="#ff6600" filter="url(#bbburst-blur-3)"></use><use xlink:href="#bbburst-shape-10" width="25.532601584718325" opacity="0.5773822102165854" transform="matrix(0.946436552064853,0.32288984641142365,-0.32288984641142365,0.946436552064853,411.96110694896277,-141.18669927389772)" fill="none" stroke="#3b82f6" filter="url(#bbburst-blur-1)"></use><use xlink:href="#bbburst-shape-13" width="55.146504651319546" opacity="-0.08094546563389438" transform="matrix(1.2635990689036714,1.210709458567899,-1.210709458567899,1.2635990689036714,501.13261741450765,-478.3668266524672)" fill="none" stroke="#3b82f6" filter="url(#bbburst-blur-4)"></use><use xlink:href="#bbburst-shape-9" width="39.90513803095371" opacity="0.20932074311723514" transform="matrix(1.2485295614332221,-0.06061298728297246,0.06061298728297246,1.2485295614332221,706.2853625784269,-114.2584512248651)" fill="none" stroke="#ff6600" filter="url(#bbburst-blur-3)"></use><use xlink:href="#bbburst-shape-13" width="34.394049775705405" opacity="0.43742471660992843" transform="matrix(0.8440481562755141,0.536267386560012,-0.536267386560012,0.8440481562755141,492.67855702823323,-176.1300985737469)" fill="none" stroke="#3b82f6" filter="url(#bbburst-blur-2)"></use><use xlink:href="#bbburst-shape-9" width="16.647722322557087" opacity="0.7206237688105701" transform="matrix(0.9587373099482622,0.2842934584424511,-0.2842934584424511,0.9587373099482622,578.4815512945206,116.58941304800948)" fill="none" stroke="#3b82f6" filter="url(#bbburst-blur-1)"></use><use xlink:href="#bbburst-shape-11" width="15.080749904752052" opacity="0.844006444357142" transform="matrix(0.7653418021753557,-0.6436240562960481,0.6436240562960481,0.7653418021753557,72.2871285736033,70.55882789172301)" fill="none" stroke="#3b82f6"></use><use xlink:href="#bbburst-shape-10" width="31.095948340071402" opacity="0.5124254110849964" transform="matrix(0.8846228699129723,0.4663071713226556,-0.4663071713226556,0.8846228699129723,780.6764317877186,109.00438961351574)" fill="none" stroke="#ff6600" filter="url(#bbburst-blur-2)"></use><use xlink:href="#bbburst-shape-11" width="33.77997181695577" opacity="0.2584882171166192" transform="matrix(1.2478660955915886,0.07300826989461025,-0.07300826989461025,1.2478660955915886,663.5730176995961,-315.64594479368816)" fill="none" stroke="#3b82f6" filter="url(#bbburst-blur-3)"></use><use xlink:href="#bbburst-shape-9" width="35.89375352677368" opacity="0.38181159960404787" transform="matrix(0.8443005210776438,0.535869975001417,-0.535869975001417,0.8443005210776438,607.0735515488327,-225.61852880037827)" fill="none" stroke="#3b82f6" filter="url(#bbburst-blur-2)"></use><use xlink:href="#bbburst-shape-10" width="32.947903322074126" opacity="0.4725134448552588" transform="matrix(0.9656944256919847,0.25968110479476153,-0.25968110479476153,0.9656944256919847,594.1758527779174,221.7246932758198)" fill="none" stroke="#ff6600" filter="url(#bbburst-blur-2)"></use><use xlink:href="#bbburst-shape-10" width="28.820073534479214" opacity="0.3073260393239209" transform="matrix(1.247635698352036,0.07684506618923266,-0.07684506618923266,1.247635698352036,559.5585505547931,174.80926850231447)" fill="none" stroke="#ff6600" filter="url(#bbburst-blur-3)"></use><use xlink:href="#bbburst-shape-9" width="32.380201498680634" opacity="0.5566343293901626" transform="matrix(0.9984922313575737,0.05489320466663969,-0.05489320466663969,0.9984922313575737,206.43711154567018,7.181930734680691)" fill="none" stroke="#3b82f6" filter="url(#bbburst-blur-1)"></use><use xlink:href="#bbburst-shape-10" width="32.69118691815527" opacity="0.04908621169348171" transform="matrix(1.7008645858946772,0.4117762261827751,-0.4117762261827751,1.7008645858946772,300.7787117987521,69.78550828831919)" fill="none" stroke="#3b82f6" filter="url(#bbburst-blur-4)"></use><use xlink:href="#bbburst-shape-10" width="43.99611761221798" opacity="0.20009537016468137" transform="matrix(1.24416162160985,-0.12067252923987402,0.12067252923987402,1.24416162160985,-20.078361359310087,-199.5569679017849)" fill="none" stroke="#ff6600" filter="url(#bbburst-blur-3)"></use><use xlink:href="#bbburst-shape-9" width="20.862292834436147" opacity="0.6110377779988723" transform="matrix(0.727765344081046,0.68582621993811,-0.68582621993811,0.727765344081046,755.9031573316979,252.31438799456203)" fill="none" stroke="#ff6600" filter="url(#bbburst-blur-1)"></use><use xlink:href="#bbburst-shape-10" width="44.099553222497" opacity="0.08017524357597094" transform="matrix(1.6589710730573923,-0.5570592237444812,0.5570592237444812,1.6589710730573923,-217.16606142793242,-459.48021551336734)" fill="none" stroke="#ff6600" filter="url(#bbburst-blur-4)"></use><use xlink:href="#bbburst-shape-10" width="32.97977681257859" opacity="0.5057036346066135" transform="matrix(0.9006893313245022,0.4344637251120294,-0.4344637251120294,0.9006893313245022,617.1837705940503,-182.11061171215286)" fill="none" stroke="#ff6600" filter="url(#bbburst-blur-2)"></use><use xlink:href="#bbburst-shape-10" width="18.23589067654873" opacity="0.6492463888240614" transform="matrix(0.9997122186993275,-0.023989159703250183,0.023989159703250183,0.9997122186993275,436.12677920710547,-147.6729422049029)" fill="none" stroke="#ff6600" filter="url(#bbburst-blur-1)"></use><use xlink:href="#bbburst-shape-10" width="31.26897447156387" opacity="0.3271386373057604" transform="matrix(0.9210062151938783,0.8451316770623661,-0.8451316770623661,0.9210062151938783,461.37780886670106,-132.91655219064737)" fill="none" stroke="#ff6600" filter="url(#bbburst-blur-3)"></use><use xlink:href="#bbburst-shape-13" width="27.9812165543188" opacity="0.4798502539141387" transform="matrix(0.8582807064552118,-0.5131805032605413,0.5131805032605413,0.8582807064552118,360.2729880346219,216.38773770099266)" fill="none" stroke="#3b82f6" filter="url(#bbburst-blur-2)"></use><use xlink:href="#bbburst-shape-11" width="15.574681702902664" opacity="0.8044149249438642" transform="matrix(0.9938089876188555,-0.11110218777317332,0.11110218777317332,0.9938089876188555,260.6721982849663,15.61151694186401)" fill="none" stroke="#ff6600"></use><use xlink:href="#bbburst-shape-10" width="32.37204416744535" opacity="0.19015670908279014" transform="matrix(1.0912353700288477,-0.6096764446802941,0.6096764446802941,1.0912353700288477,161.09781248755837,337.1002076527367)" fill="none" stroke="#ff6600" filter="url(#bbburst-blur-3)"></use><use xlink:href="#bbburst-shape-9" width="33.50502871858005" opacity="0.14081249119804218" transform="matrix(1.103825142761713,0.5865748496203055,-0.5865748496203055,1.103825142761713,865.3596691595012,244.09789179143286)" fill="none" stroke="#ff6600" filter="url(#bbburst-blur-3)"></use><use xlink:href="#bbburst-shape-9" width="27.60073043454557" opacity="0.3495299697828417" transform="matrix(0.9632413108694555,0.2686376314563784,-0.2686376314563784,0.9632413108694555,423.64619093336927,294.8953078010919)" fill="none" stroke="#3b82f6" filter="url(#bbburst-blur-2)"></use><use xlink:href="#bbburst-shape-9" width="35.80304297019532" opacity="0.25061611278764906" transform="matrix(1.0295253333213348,0.7089270682161843,-0.7089270682161843,1.0295253333213348,491.2858001156094,-313.59911780360443)" fill="none" stroke="#3b82f6" filter="url(#bbburst-blur-3)"></use><use xlink:href="#bbburst-shape-11" width="31.498779382308882" opacity="0.2177522865464654" transform="matrix(1.1322385925083904,0.5296562749884296,-0.5296562749884296,1.1322385925083904,799.4141230038732,-347.73505263483185)" fill="none" stroke="#3b82f6" filter="url(#bbburst-blur-3)"></use><use xlink:href="#bbburst-shape-9" width="23.28309789670608" opacity="0.6883916749308783" transform="matrix(0.9044969660916489,0.42648005619372475,-0.42648005619372475,0.9044969660916489,699.3894173276053,16.68411466680749)" fill="none" stroke="#ff6600" filter="url(#bbburst-blur-1)"></use><use xlink:href="#bbburst-shape-9" width="36.72773854537867" opacity="0.39276037216559234" transform="matrix(0.999927658323673,0.012028221786109036,-0.012028221786109036,0.999927658323673,171.078478338859,167.73956193793305)" fill="none" stroke="#3b82f6" filter="url(#bbburst-blur-2)"></use><use xlink:href="#bbburst-shape-11" width="31.653164993790128" opacity="0.2324391846253968" transform="matrix(1.058438873385254,0.6649865797946258,-0.6649865797946258,1.058438873385254,446.5969998923008,245.18087522161886)" fill="none" stroke="#ff6600" filter="url(#bbburst-blur-3)"></use><use xlink:href="#bbburst-shape-9" width="24.593371550293554" opacity="0.474853395241697" transform="matrix(0.9781751465893248,0.20778205551720041,-0.20778205551720041,0.9781751465893248,475.8799525196754,242.28073669666156)" fill="none" stroke="#3b82f6" filter="url(#bbburst-blur-2)"></use><use xlink:href="#bbburst-shape-9" width="19.15009913834825" opacity="0.8048766600256769" transform="matrix(0.9543212189714281,-0.2987825480527395,0.2987825480527395,0.9543212189714281,259.4646699924839,-65.99356502078098)" fill="none" stroke="#3b82f6"></use><use xlink:href="#bbburst-shape-9" width="12.695837506797243" opacity="0.9093907049439731" transform="matrix(0.7530197002745943,0.6579979718801269,-0.6579979718801269,0.7530197002745943,684.2665358205445,126.13163085578526)" fill="none" stroke="#ff6600"></use><use xlink:href="#bbburst-shape-13" width="21.41568369466645" opacity="0.6489416507489358" transform="matrix(0.9985230476947428,0.054329763688079416,-0.054329763688079416,0.9985230476947428,562.6059035015355,44.55382472590941)" fill="none" stroke="#3b82f6" filter="url(#bbburst-blur-1)"></use><use xlink:href="#bbburst-shape-9" width="34.903768718897766" opacity="0.4855041327986356" transform="matrix(0.8990658485707508,-0.43781343050865384,0.43781343050865384,0.8990658485707508,431.00766718800674,-18.16401883049093)" fill="none" stroke="#3b82f6" filter="url(#bbburst-blur-2)"></use><use xlink:href="#bbburst-shape-9" width="25.861844522282098" opacity="0.5437213217239893" transform="matrix(0.9633437531961916,0.26827003779377795,-0.26827003779377795,0.9633437531961916,656.429300355566,-115.72660994774162)" fill="none" stroke="#ff6600" filter="url(#bbburst-blur-2)"></use><use xlink:href="#bbburst-shape-13" width="33.398957674505795" opacity="0.2976514035226101" transform="matrix(0.9054319332248245,-0.8617963879575946,0.8617963879575946,0.9054319332248245,-244.3809835104832,189.79672344614323)" fill="none" stroke="#3b82f6" filter="url(#bbburst-blur-3)"></use><use xlink:href="#bbburst-shape-9" width="15.379378375294177" opacity="0.8338404388305941" transform="matrix(0.7481319114616444,0.6635500305574149,-0.6635500305574149,0.7481319114616444,727.1331679305467,127.94667228626196)" fill="none" stroke="#ff6600"></use><use xlink:href="#bbburst-shape-10" width="17.21968771720279" opacity="0.9046164391976151" transform="matrix(0.8992114433677308,0.4375143198988144,-0.4375143198988144,0.8992114433677308,576.6406319914173,-5.337345395461796)" fill="none" stroke="#3b82f6"></use><use xlink:href="#bbburst-shape-10" width="41.66202286847546" opacity="0.10743978860284276" transform="matrix(1.6114830622596472,-0.6823652541346679,0.6823652541346679,1.6114830622596472,-228.26892296526324,10.034885537572563)" fill="none" stroke="#ff6600" filter="url(#bbburst-blur-4)"></use><use xlink:href="#bbburst-shape-10" width="18.73436667732585" opacity="0.69127574606456" transform="matrix(0.7675487176950971,0.6409906130081875,-0.6409906130081875,0.7675487176950971,601.5572347596476,-43.52265084346436)" fill="none" stroke="#3b82f6" filter="url(#bbburst-blur-1)"></use><use xlink:href="#bbburst-shape-13" width="14.942528698967191" opacity="0.8125831035032323" transform="matrix(0.7161383204489307,-0.6979583841351752,0.6979583841351752,0.7161383204489307,95.0518012009831,200.58889947429623)" fill="none" stroke="#3b82f6"></use><use xlink:href="#bbburst-shape-10" width="35.66761972988036" opacity="0.3884368272303187" transform="matrix(0.9305669381686824,-0.36612180157341584,0.36612180157341584,0.9305669381686824,48.83328846577703,-166.5627457486444)" fill="none" stroke="#ff6600" filter="url(#bbburst-blur-2)"></use><use xlink:href="#bbburst-shape-9" width="23.057148552958274" opacity="0.7253587339319911" transform="matrix(0.9681119239808756,0.2505180685021486,-0.2505180685021486,0.9681119239808756,379.06059387897903,66.00799805575963)" fill="none" stroke="#ff6600" filter="url(#bbburst-blur-1)"></use><use xlink:href="#bbburst-shape-11" width="52.21355598399225" opacity="0.16234594216356135" transform="matrix(1.2055194599589418,-0.33048877690520945,0.33048877690520945,1.2055194599589418,-39.24661531603641,-331.81242667259005)" fill="none" stroke="#ff6600" filter="url(#bbburst-blur-3)"></use><use xlink:href="#bbburst-shape-13" width="19.562053463471262" opacity="0.6391118203835848" transform="matrix(0.9974146580520847,-0.0718609762168798,0.0718609762168798,0.9974146580520847,508.1253808167745,-68.08143866797127)" fill="none" stroke="#3b82f6" filter="url(#bbburst-blur-1)"></use><use xlink:href="#bbburst-shape-9" width="30.74327949261675" opacity="0.16875091348062676" transform="matrix(1.206537693787574,-0.32675188365143687,0.32675188365143687,1.206537693787574,143.296546852187,280.4732966766683)" fill="none" stroke="#ff6600" filter="url(#bbburst-blur-3)"></use><use xlink:href="#bbburst-shape-9" width="42.57353641563947" opacity="0.2645996968161406" transform="matrix(1.0935341250378734,-0.6055436543946711,0.6055436543946711,1.0935341250378734,-193.4822622115416,20.47534174301552)" fill="none" stroke="#ff6600" filter="url(#bbburst-blur-3)"></use><use xlink:href="#bbburst-shape-10" width="34.39798798145865" opacity="0.4454152851029356" transform="matrix(0.883384552470016,-0.46864883703829835,0.46864883703829835,0.883384552470016,-44.73026192183576,115.37178966018553)" fill="none" stroke="#ff6600" filter="url(#bbburst-blur-2)"></use><use xlink:href="#bbburst-shape-10" width="44.37090937521545" opacity="0.008976198636456711" transform="matrix(1.7281630847055416,-0.27559454396091976,0.27559454396091976,1.7281630847055416,605.2184922705701,-13.656904952317632)" fill="none" stroke="#3b82f6" filter="url(#bbburst-blur-4)"></use><use xlink:href="#bbburst-shape-9" width="24.024836357681867" opacity="0.6842899917514645" transform="matrix(0.903480055504673,-0.428630131121545,0.428630131121545,0.903480055504673,119.74100899303704,146.57829541320393)" fill="none" stroke="#ff6600" filter="url(#bbburst-blur-1)"></use><use xlink:href="#bbburst-shape-13" width="24.341952714990473" opacity="0.5256653499479857" transform="matrix(0.8762413802890384,0.4818724348509268,-0.4818724348509268,0.8762413802890384,511.79953330703904,245.18565382975981)" fill="none" stroke="#3b82f6" filter="url(#bbburst-blur-2)"></use><use xlink:href="#bbburst-shape-9" width="15.362133409729424" opacity="0.8135256362067453" transform="matrix(0.7330960492141475,0.6801251227727206,-0.6801251227727206,0.7330960492141475,716.3536176678609,168.95262654125452)" fill="none" stroke="#3b82f6"></use><use xlink:href="#bbburst-shape-13" width="37.924966832219845" opacity="0.11518695001992141" transform="matrix(1.0501029843024958,0.6780735375746443,-0.6780735375746443,1.0501029843024958,817.1566896952735,329.0859462724843)" fill="none" stroke="#3b82f6" filter="url(#bbburst-blur-3)"></use><use xlink:href="#bbburst-shape-13" width="31.955363560425607" opacity="0.4234143843530471" transform="matrix(0.7546887960933814,-0.6560829376314573,0.6560829376314573,0.7546887960933814,277.57655312000554,-101.62288399119976)" fill="none" stroke="#ff6600" filter="url(#bbburst-blur-2)"></use><use xlink:href="#bbburst-shape-10" width="22.436707867198507" opacity="0.7206136064352635" transform="matrix(0.9747682732978749,-0.22321920475595194,0.22321920475595194,0.9747682732978749,385.55277366658424,-79.32167400783646)" fill="none" stroke="#3b82f6" filter="url(#bbburst-blur-1)"></use><use xlink:href="#bbburst-shape-9" width="42.53276161465581" opacity="0.1840088620451824" transform="matrix(1.2098162526954037,-0.314395665863973,0.314395665863973,1.2098162526954037,605.8751690573149,6.44245092852708)" fill="none" stroke="#ff6600" filter="url(#bbburst-blur-3)"></use><use xlink:href="#bbburst-shape-9" width="12.235981967256999" opacity="0.9486077698576748" transform="matrix(0.9844988861330601,-0.17539082987078847,0.17539082987078847,0.9844988861330601,302.5173704347792,-1.842513275141016)" fill="none" stroke="#ff6600"></use><use xlink:href="#bbburst-shape-10" width="24.661617305283855" opacity="0.6792399212142584" transform="matrix(0.9980788979749607,-0.061955737563909256,0.061955737563909256,0.9980788979749607,252.69605520926427,-91.67371403756465)" fill="none" stroke="#3b82f6" filter="url(#bbburst-blur-1)"></use><use xlink:href="#bbburst-shape-9" width="22.68490710436356" opacity="0.590408547949871" transform="matrix(0.9829739236053205,0.18374511017156758,-0.18374511017156758,0.9829739236053205,568.8284603485966,-145.89158355330508)" fill="none" stroke="#ff6600" filter="url(#bbburst-blur-1)"></use><use xlink:href="#bbburst-shape-9" width="12.99341146564958" opacity="0.8490348483000797" transform="matrix(0.9168120133570206,-0.3993190856498678,0.3993190856498678,0.9168120133570206,247.33610677657634,102.45728080532007)" fill="none" stroke="#ff6600"></use></svg>