<svg xmlns="http://www.w3.org/2000/svg" version="1.1" xmlns:xlink="http://www.w3.org/1999/xlink" xmlns:svgjs="http://svgjs.dev/svgjs" viewBox="0 0 1422 800"><g stroke-width="2" stroke="#fd6400" fill="none" stroke-linecap="round"><line x1="66" y1="0" x2="0" y2="66" opacity="0.50"></line><line x1="132" y1="0" x2="66" y2="66" opacity="0.68"></line><line x1="198" y1="0" x2="132" y2="66" opacity="0.36"></line><line x1="264" y1="0" x2="198" y2="66" opacity="0.86"></line><line x1="330" y1="0" x2="264" y2="66" opacity="0.74"></line><line x1="330" y1="0" x2="396" y2="66" opacity="0.26"></line><line x1="462" y1="0" x2="396" y2="66" opacity="0.70"></line><line x1="528" y1="0" x2="462" y2="66" opacity="0.84"></line><line x1="594" y1="0" x2="528" y2="66" opacity="0.86"></line><line x1="660" y1="0" x2="594" y2="66" opacity="0.96"></line><line x1="660" y1="0" x2="726" y2="66" opacity="0.30"></line><line x1="726" y1="0" x2="792" y2="66" opacity="0.78"></line><line x1="858" y1="0" x2="792" y2="66" opacity="0.12"></line><line x1="924" y1="0" x2="858" y2="66" opacity="0.92"></line><line x1="924" y1="0" x2="990" y2="66" opacity="0.91"></line><line x1="1056" y1="0" x2="990" y2="66" opacity="0.75"></line><line x1="1056" y1="0" x2="1122" y2="66" opacity="0.91"></line><line x1="1122" y1="0" x2="1188" y2="66" opacity="0.25"></line><line x1="1254" y1="0" x2="1188" y2="66" opacity="0.22"></line><line x1="1320" y1="0" x2="1254" y2="66" opacity="0.14"></line><line x1="1386" y1="0" x2="1320" y2="66" opacity="0.66"></line><line x1="1452" y1="0" x2="1386" y2="66" opacity="0.47"></line><line x1="66" y1="66" x2="0" y2="132" opacity="0.70"></line><line x1="66" y1="66" x2="132" y2="132" opacity="0.25"></line><line x1="198" y1="66" x2="132" y2="132" opacity="0.42"></line><line x1="198" y1="66" x2="264" y2="132" opacity="0.64"></line><line x1="330" y1="66" x2="264" y2="132" opacity="0.30"></line><line x1="396" y1="66" x2="330" y2="132" opacity="0.95"></line><line x1="396" y1="66" x2="462" y2="132" opacity="0.32"></line><line x1="528" y1="66" x2="462" y2="132" opacity="0.19"></line><line x1="594" y1="66" x2="528" y2="132" opacity="0.25"></line><line x1="660" y1="66" x2="594" y2="132" opacity="0.86"></line><line x1="660" y1="66" x2="726" y2="132" opacity="0.98"></line><line x1="726" y1="66" x2="792" y2="132" opacity="0.31"></line><line x1="792" y1="66" x2="858" y2="132" opacity="0.71"></line><line x1="858" y1="66" x2="924" y2="132" opacity="0.80"></line><line x1="924" y1="66" x2="990" y2="132" opacity="0.88"></line><line x1="1056" y1="66" x2="990" y2="132" opacity="0.42"></line><line x1="1056" y1="66" x2="1122" y2="132" opacity="0.94"></line><line x1="1188" y1="66" x2="1122" y2="132" opacity="0.10"></line><line x1="1188" y1="66" x2="1254" y2="132" opacity="0.87"></line><line x1="1320" y1="66" x2="1254" y2="132" opacity="0.26"></line><line x1="1320" y1="66" x2="1386" y2="132" opacity="0.68"></line><line x1="1452" y1="66" x2="1386" y2="132" opacity="0.19"></line><line x1="0" y1="132" x2="66" y2="198" opacity="0.41"></line><line x1="132" y1="132" x2="66" y2="198" opacity="0.94"></line><line x1="132" y1="132" x2="198" y2="198" opacity="0.13"></line><line x1="264" y1="132" x2="198" y2="198" opacity="0.56"></line><line x1="330" y1="132" x2="264" y2="198" opacity="0.53"></line><line x1="330" y1="132" x2="396" y2="198" opacity="0.13"></line><line x1="396" y1="132" x2="462" y2="198" opacity="0.67"></line><line x1="462" y1="132" x2="528" y2="198" opacity="0.89"></line><line x1="528" y1="132" x2="594" y2="198" opacity="0.21"></line><line x1="660" y1="132" x2="594" y2="198" opacity="0.74"></line><line x1="726" y1="132" x2="660" y2="198" opacity="0.45"></line><line x1="792" y1="132" x2="726" y2="198" opacity="0.33"></line><line x1="858" y1="132" x2="792" y2="198" opacity="0.93"></line><line x1="858" y1="132" x2="924" y2="198" opacity="0.39"></line><line x1="990" y1="132" x2="924" y2="198" opacity="0.35"></line><line x1="1056" y1="132" x2="990" y2="198" opacity="0.89"></line><line x1="1122" y1="132" x2="1056" y2="198" opacity="0.10"></line><line x1="1188" y1="132" x2="1122" y2="198" opacity="0.37"></line><line x1="1188" y1="132" x2="1254" y2="198" opacity="0.19"></line><line x1="1254" y1="132" x2="1320" y2="198" opacity="0.76"></line><line x1="1320" y1="132" x2="1386" y2="198" opacity="0.70"></line><line x1="1386" y1="132" x2="1452" y2="198" opacity="0.61"></line><line x1="0" y1="198" x2="66" y2="264" opacity="0.34"></line><line x1="66" y1="198" x2="132" y2="264" opacity="0.62"></line><line x1="198" y1="198" x2="132" y2="264" opacity="0.15"></line><line x1="198" y1="198" x2="264" y2="264" opacity="0.37"></line><line x1="264" y1="198" x2="330" y2="264" opacity="0.75"></line><line x1="396" y1="198" x2="330" y2="264" opacity="0.28"></line><line x1="396" y1="198" x2="462" y2="264" opacity="0.08"></line><line x1="462" y1="198" x2="528" y2="264" opacity="0.46"></line><line x1="594" y1="198" x2="528" y2="264" opacity="0.62"></line><line x1="660" y1="198" x2="594" y2="264" opacity="0.20"></line><line x1="660" y1="198" x2="726" y2="264" opacity="0.33"></line><line x1="792" y1="198" x2="726" y2="264" opacity="0.51"></line><line x1="858" y1="198" x2="792" y2="264" opacity="0.62"></line><line x1="858" y1="198" x2="924" y2="264" opacity="0.19"></line><line x1="924" y1="198" x2="990" y2="264" opacity="0.11"></line><line x1="990" y1="198" x2="1056" y2="264" opacity="0.09"></line><line x1="1122" y1="198" x2="1056" y2="264" opacity="0.18"></line><line x1="1188" y1="198" x2="1122" y2="264" opacity="0.40"></line><line x1="1254" y1="198" x2="1188" y2="264" opacity="0.41"></line><line x1="1254" y1="198" x2="1320" y2="264" opacity="0.22"></line><line x1="1320" y1="198" x2="1386" y2="264" opacity="0.59"></line><line x1="1452" y1="198" x2="1386" y2="264" opacity="0.61"></line><line x1="0" y1="264" x2="66" y2="330" opacity="0.53"></line><line x1="132" y1="264" x2="66" y2="330" opacity="0.21"></line><line x1="132" y1="264" x2="198" y2="330" opacity="0.36"></line><line x1="198" y1="264" x2="264" y2="330" opacity="0.81"></line><line x1="330" y1="264" x2="264" y2="330" opacity="0.58"></line><line x1="330" y1="264" x2="396" y2="330" opacity="0.14"></line><line x1="396" y1="264" x2="462" y2="330" opacity="0.21"></line><line x1="462" y1="264" x2="528" y2="330" opacity="0.70"></line><line x1="594" y1="264" x2="528" y2="330" opacity="0.71"></line><line x1="660" y1="264" x2="594" y2="330" opacity="0.64"></line><line x1="660" y1="264" x2="726" y2="330" opacity="0.69"></line><line x1="792" y1="264" x2="726" y2="330" opacity="0.46"></line><line x1="792" y1="264" x2="858" y2="330" opacity="0.66"></line><line x1="858" y1="264" x2="924" y2="330" opacity="0.28"></line><line x1="990" y1="264" x2="924" y2="330" opacity="0.60"></line><line x1="1056" y1="264" x2="990" y2="330" opacity="0.27"></line><line x1="1122" y1="264" x2="1056" y2="330" opacity="0.38"></line><line x1="1188" y1="264" x2="1122" y2="330" opacity="0.12"></line><line x1="1188" y1="264" x2="1254" y2="330" opacity="0.34"></line><line x1="1254" y1="264" x2="1320" y2="330" opacity="0.55"></line><line x1="1386" y1="264" x2="1320" y2="330" opacity="0.36"></line><line x1="1452" y1="264" x2="1386" y2="330" opacity="0.74"></line><line x1="0" y1="330" x2="66" y2="396" opacity="0.70"></line><line x1="66" y1="330" x2="132" y2="396" opacity="0.85"></line><line x1="198" y1="330" x2="132" y2="396" opacity="0.68"></line><line x1="264" y1="330" x2="198" y2="396" opacity="0.78"></line><line x1="264" y1="330" x2="330" y2="396" opacity="0.46"></line><line x1="396" y1="330" x2="330" y2="396" opacity="0.28"></line><line x1="396" y1="330" x2="462" y2="396" opacity="0.62"></line><line x1="462" y1="330" x2="528" y2="396" opacity="0.91"></line><line x1="594" y1="330" x2="528" y2="396" opacity="0.63"></line><line x1="594" y1="330" x2="660" y2="396" opacity="0.31"></line><line x1="726" y1="330" x2="660" y2="396" opacity="0.27"></line><line x1="792" y1="330" x2="726" y2="396" opacity="0.87"></line><line x1="792" y1="330" x2="858" y2="396" opacity="0.15"></line><line x1="858" y1="330" x2="924" y2="396" opacity="0.68"></line><line x1="924" y1="330" x2="990" y2="396" opacity="0.76"></line><line x1="990" y1="330" x2="1056" y2="396" opacity="0.92"></line><line x1="1122" y1="330" x2="1056" y2="396" opacity="0.94"></line><line x1="1188" y1="330" x2="1122" y2="396" opacity="0.57"></line><line x1="1254" y1="330" x2="1188" y2="396" opacity="0.16"></line><line x1="1254" y1="330" x2="1320" y2="396" opacity="0.40"></line><line x1="1320" y1="330" x2="1386" y2="396" opacity="0.46"></line><line x1="1386" y1="330" x2="1452" y2="396" opacity="0.41"></line><line x1="66" y1="396" x2="0" y2="462" opacity="0.10"></line><line x1="132" y1="396" x2="66" y2="462" opacity="0.24"></line><line x1="132" y1="396" x2="198" y2="462" opacity="0.22"></line><line x1="198" y1="396" x2="264" y2="462" opacity="0.18"></line><line x1="330" y1="396" x2="264" y2="462" opacity="0.50"></line><line x1="396" y1="396" x2="330" y2="462" opacity="0.92"></line><line x1="462" y1="396" x2="396" y2="462" opacity="0.84"></line><line x1="528" y1="396" x2="462" y2="462" opacity="0.85"></line><line x1="528" y1="396" x2="594" y2="462" opacity="0.78"></line><line x1="594" y1="396" x2="660" y2="462" opacity="0.74"></line><line x1="660" y1="396" x2="726" y2="462" opacity="0.18"></line><line x1="792" y1="396" x2="726" y2="462" opacity="0.49"></line><line x1="792" y1="396" x2="858" y2="462" opacity="0.79"></line><line x1="858" y1="396" x2="924" y2="462" opacity="0.18"></line><line x1="990" y1="396" x2="924" y2="462" opacity="0.99"></line><line x1="1056" y1="396" x2="990" y2="462" opacity="0.97"></line><line x1="1122" y1="396" x2="1056" y2="462" opacity="1.00"></line><line x1="1122" y1="396" x2="1188" y2="462" opacity="0.88"></line><line x1="1188" y1="396" x2="1254" y2="462" opacity="0.08"></line><line x1="1320" y1="396" x2="1254" y2="462" opacity="0.72"></line><line x1="1386" y1="396" x2="1320" y2="462" opacity="0.19"></line><line x1="1386" y1="396" x2="1452" y2="462" opacity="0.20"></line><line x1="0" y1="462" x2="66" y2="528" opacity="0.28"></line><line x1="132" y1="462" x2="66" y2="528" opacity="0.16"></line><line x1="132" y1="462" x2="198" y2="528" opacity="0.78"></line><line x1="198" y1="462" x2="264" y2="528" opacity="0.79"></line><line x1="264" y1="462" x2="330" y2="528" opacity="0.10"></line><line x1="330" y1="462" x2="396" y2="528" opacity="0.18"></line><line x1="462" y1="462" x2="396" y2="528" opacity="0.47"></line><line x1="528" y1="462" x2="462" y2="528" opacity="0.89"></line><line x1="528" y1="462" x2="594" y2="528" opacity="0.90"></line><line x1="660" y1="462" x2="594" y2="528" opacity="0.18"></line><line x1="726" y1="462" x2="660" y2="528" opacity="0.82"></line><line x1="726" y1="462" x2="792" y2="528" opacity="0.47"></line><line x1="858" y1="462" x2="792" y2="528" opacity="0.83"></line><line x1="858" y1="462" x2="924" y2="528" opacity="0.47"></line><line x1="924" y1="462" x2="990" y2="528" opacity="0.29"></line><line x1="1056" y1="462" x2="990" y2="528" opacity="0.08"></line><line x1="1056" y1="462" x2="1122" y2="528" opacity="0.29"></line><line x1="1188" y1="462" x2="1122" y2="528" opacity="0.71"></line><line x1="1254" y1="462" x2="1188" y2="528" opacity="0.49"></line><line x1="1320" y1="462" x2="1254" y2="528" opacity="0.11"></line><line x1="1320" y1="462" x2="1386" y2="528" opacity="0.56"></line><line x1="1386" y1="462" x2="1452" y2="528" opacity="0.38"></line><line x1="66" y1="528" x2="0" y2="594" opacity="0.38"></line><line x1="66" y1="528" x2="132" y2="594" opacity="0.40"></line><line x1="198" y1="528" x2="132" y2="594" opacity="0.66"></line><line x1="264" y1="528" x2="198" y2="594" opacity="0.95"></line><line x1="264" y1="528" x2="330" y2="594" opacity="0.37"></line><line x1="396" y1="528" x2="330" y2="594" opacity="0.11"></line><line x1="462" y1="528" x2="396" y2="594" opacity="0.48"></line><line x1="462" y1="528" x2="528" y2="594" opacity="0.21"></line><line x1="594" y1="528" x2="528" y2="594" opacity="0.30"></line><line x1="660" y1="528" x2="594" y2="594" opacity="0.31"></line><line x1="660" y1="528" x2="726" y2="594" opacity="0.38"></line><line x1="792" y1="528" x2="726" y2="594" opacity="0.50"></line><line x1="792" y1="528" x2="858" y2="594" opacity="0.90"></line><line x1="924" y1="528" x2="858" y2="594" opacity="0.93"></line><line x1="990" y1="528" x2="924" y2="594" opacity="0.15"></line><line x1="1056" y1="528" x2="990" y2="594" opacity="0.28"></line><line x1="1056" y1="528" x2="1122" y2="594" opacity="0.67"></line><line x1="1188" y1="528" x2="1122" y2="594" opacity="0.93"></line><line x1="1188" y1="528" x2="1254" y2="594" opacity="0.77"></line><line x1="1254" y1="528" x2="1320" y2="594" opacity="0.58"></line><line x1="1386" y1="528" x2="1320" y2="594" opacity="0.54"></line><line x1="1452" y1="528" x2="1386" y2="594" opacity="0.23"></line><line x1="0" y1="594" x2="66" y2="660" opacity="0.10"></line><line x1="132" y1="594" x2="66" y2="660" opacity="0.53"></line><line x1="132" y1="594" x2="198" y2="660" opacity="0.71"></line><line x1="264" y1="594" x2="198" y2="660" opacity="0.56"></line><line x1="264" y1="594" x2="330" y2="660" opacity="0.63"></line><line x1="396" y1="594" x2="330" y2="660" opacity="0.10"></line><line x1="396" y1="594" x2="462" y2="660" opacity="0.77"></line><line x1="462" y1="594" x2="528" y2="660" opacity="0.96"></line><line x1="528" y1="594" x2="594" y2="660" opacity="0.27"></line><line x1="660" y1="594" x2="594" y2="660" opacity="0.54"></line><line x1="726" y1="594" x2="660" y2="660" opacity="0.27"></line><line x1="792" y1="594" x2="726" y2="660" opacity="0.67"></line><line x1="858" y1="594" x2="792" y2="660" opacity="0.21"></line><line x1="858" y1="594" x2="924" y2="660" opacity="0.81"></line><line x1="990" y1="594" x2="924" y2="660" opacity="0.30"></line><line x1="1056" y1="594" x2="990" y2="660" opacity="0.73"></line><line x1="1122" y1="594" x2="1056" y2="660" opacity="0.59"></line><line x1="1122" y1="594" x2="1188" y2="660" opacity="0.53"></line><line x1="1188" y1="594" x2="1254" y2="660" opacity="0.96"></line><line x1="1254" y1="594" x2="1320" y2="660" opacity="0.13"></line><line x1="1320" y1="594" x2="1386" y2="660" opacity="0.91"></line><line x1="1452" y1="594" x2="1386" y2="660" opacity="0.59"></line><line x1="0" y1="660" x2="66" y2="726" opacity="0.53"></line><line x1="132" y1="660" x2="66" y2="726" opacity="0.49"></line><line x1="132" y1="660" x2="198" y2="726" opacity="0.91"></line><line x1="264" y1="660" x2="198" y2="726" opacity="0.98"></line><line x1="264" y1="660" x2="330" y2="726" opacity="0.90"></line><line x1="330" y1="660" x2="396" y2="726" opacity="0.57"></line><line x1="462" y1="660" x2="396" y2="726" opacity="0.46"></line><line x1="462" y1="660" x2="528" y2="726" opacity="0.16"></line><line x1="528" y1="660" x2="594" y2="726" opacity="0.81"></line><line x1="594" y1="660" x2="660" y2="726" opacity="0.40"></line><line x1="726" y1="660" x2="660" y2="726" opacity="0.72"></line><line x1="792" y1="660" x2="726" y2="726" opacity="0.17"></line><line x1="792" y1="660" x2="858" y2="726" opacity="0.16"></line><line x1="858" y1="660" x2="924" y2="726" opacity="0.61"></line><line x1="990" y1="660" x2="924" y2="726" opacity="0.50"></line><line x1="990" y1="660" x2="1056" y2="726" opacity="0.94"></line><line x1="1056" y1="660" x2="1122" y2="726" opacity="0.62"></line><line x1="1188" y1="660" x2="1122" y2="726" opacity="0.52"></line><line x1="1188" y1="660" x2="1254" y2="726" opacity="0.34"></line><line x1="1254" y1="660" x2="1320" y2="726" opacity="0.32"></line><line x1="1386" y1="660" x2="1320" y2="726" opacity="0.65"></line><line x1="1452" y1="660" x2="1386" y2="726" opacity="0.82"></line><line x1="0" y1="726" x2="66" y2="792" opacity="0.45"></line><line x1="66" y1="726" x2="132" y2="792" opacity="0.26"></line><line x1="198" y1="726" x2="132" y2="792" opacity="0.98"></line><line x1="198" y1="726" x2="264" y2="792" opacity="0.53"></line><line x1="330" y1="726" x2="264" y2="792" opacity="0.33"></line><line x1="330" y1="726" x2="396" y2="792" opacity="0.50"></line><line x1="396" y1="726" x2="462" y2="792" opacity="0.27"></line><line x1="528" y1="726" x2="462" y2="792" opacity="0.96"></line><line x1="594" y1="726" x2="528" y2="792" opacity="0.51"></line><line x1="660" y1="726" x2="594" y2="792" opacity="0.95"></line><line x1="726" y1="726" x2="660" y2="792" opacity="0.88"></line><line x1="726" y1="726" x2="792" y2="792" opacity="0.73"></line><line x1="858" y1="726" x2="792" y2="792" opacity="0.71"></line><line x1="858" y1="726" x2="924" y2="792" opacity="0.68"></line><line x1="990" y1="726" x2="924" y2="792" opacity="0.28"></line><line x1="990" y1="726" x2="1056" y2="792" opacity="0.77"></line><line x1="1122" y1="726" x2="1056" y2="792" opacity="0.24"></line><line x1="1122" y1="726" x2="1188" y2="792" opacity="0.08"></line><line x1="1188" y1="726" x2="1254" y2="792" opacity="0.92"></line><line x1="1254" y1="726" x2="1320" y2="792" opacity="0.88"></line><line x1="1386" y1="726" x2="1320" y2="792" opacity="0.70"></line><line x1="1386" y1="726" x2="1452" y2="792" opacity="0.44"></line><line x1="66" y1="792" x2="0" y2="858" opacity="0.95"></line><line x1="132" y1="792" x2="66" y2="858" opacity="0.20"></line><line x1="198" y1="792" x2="132" y2="858" opacity="0.62"></line><line x1="264" y1="792" x2="198" y2="858" opacity="0.35"></line><line x1="330" y1="792" x2="264" y2="858" opacity="0.58"></line><line x1="396" y1="792" x2="330" y2="858" opacity="0.62"></line><line x1="462" y1="792" x2="396" y2="858" opacity="0.81"></line><line x1="462" y1="792" x2="528" y2="858" opacity="0.57"></line><line x1="528" y1="792" x2="594" y2="858" opacity="0.97"></line><line x1="594" y1="792" x2="660" y2="858" opacity="0.89"></line><line x1="660" y1="792" x2="726" y2="858" opacity="0.38"></line><line x1="792" y1="792" x2="726" y2="858" opacity="0.71"></line><line x1="858" y1="792" x2="792" y2="858" opacity="0.78"></line><line x1="858" y1="792" x2="924" y2="858" opacity="0.41"></line><line x1="924" y1="792" x2="990" y2="858" opacity="0.63"></line><line x1="990" y1="792" x2="1056" y2="858" opacity="0.27"></line><line x1="1056" y1="792" x2="1122" y2="858" opacity="0.30"></line><line x1="1122" y1="792" x2="1188" y2="858" opacity="0.44"></line><line x1="1188" y1="792" x2="1254" y2="858" opacity="0.94"></line><line x1="1320" y1="792" x2="1254" y2="858" opacity="0.52"></line><line x1="1320" y1="792" x2="1386" y2="858" opacity="0.83"></line><line x1="1452" y1="792" x2="1386" y2="858" opacity="0.40"></line></g></svg>