<svg xmlns="http://www.w3.org/2000/svg" version="1.1" xmlns:xlink="http://www.w3.org/1999/xlink" xmlns:svgjs="http://svgjs.dev/svgjs" viewBox="0 0 1422 800"><defs><filter id="uuunion-blur" x="-100%" y="-100%" width="400%" height="400%" color-interpolation-filters="sRGB">
        <feGaussianBlur in="SourceGraphic" stdDeviation="7.5 0" result="blur"></feGaussianBlur>
        <feDropShadow stdDeviation="12.307692307692308" in="blur" dx="10" dy="10" flood-color="#ff66000" flood-opacity="0.25" x="0%" y="0%" width="100%" height="100%"></feDropShadow>
      </filter><filter id="uuunion-blur2" x="-100%" y="-100%" width="400%" height="400%" color-interpolation-filters="sRGB">
        <feGaussianBlur in="SourceGraphic" stdDeviation="7.5 0" result="blur"></feGaussianBlur>
        <feDropShadow stdDeviation="12.307692307692308" in="blur" dx="-10" dy="-10" flood-color="#ff66000" flood-opacity="0.25" x="0%" y="0%" width="100%" height="100%"></feDropShadow>
      </filter><linearGradient gradientTransform="rotate(0, 0.5, 0.5)" x1="50%" y1="0%" x2="50%" y2="100%" id="uuunion-grad"><stop stop-color="#1d1f21" offset="10%"></stop><stop stop-color="#ff66000" offset="90%"></stop></linearGradient><linearGradient gradientTransform="rotate(135, 0.5, 0.5)" x1="50%" y1="0%" x2="50%" y2="100%" id="uuunion-grad2"><stop stop-color="#1d1f21" offset="25%"></stop><stop stop-color="#ff66000" offset="100%"></stop></linearGradient><linearGradient gradientTransform="rotate(333, 0.5, 0.5)" x1="50%" y1="0%" x2="50%" y2="100%" id="uuunion-grad3"><stop stop-color="#1d1f21" offset="0%"></stop><stop stop-color="#ff66000" offset="75%"></stop></linearGradient></defs><path d="M-143.74 -90.51Q-130.4 -89.29 -117.05 -87.41 -103.7 -85.01 -90.35 -82.25 -77.01 -79.33 -63.66 -76.46 -50.31 -73.84 -36.96 -71.66 -23.62 -70.06 -10.27 -69.17 3.07 -69.04 16.42 -69.68 29.77 -71.06 43.11 -73.06 56.46 -75.56 69.81 -78.37 83.16 -81.29 96.5 -84.12 109.85 -86.66 123.2 -88.73 136.55 -90.18 149.89 -90.92 163.24 -90.88 176.59 -90.07 189.94 -88.55 203.29 -86.42 216.63 -83.84 229.98 -80.99 243.33 -78.07 256.68 -75.29 270.02 -72.83 283.37 -70.89 296.72 -69.58 310.07 -69.02 323.42 -69.22 336.76 -70.19 350.11 -71.86 363.46 -74.09 376.81 -76.75 390.15 -79.63 403.5 -82.54 416.85 -85.27 430.2 -87.63 443.54 -89.45 456.89 -90.59 470.24 -90.99 483.59 -90.62 496.94 -89.49 510.28 -87.69 523.63 -85.35 536.98 -82.63 550.33 -79.72 563.67 -76.83 577.02 -74.17 590.37 -71.92 603.72 -70.23 617.07 -69.24 630.41 -69.01 643.76 -69.56 657.11 -70.84 670.46 -72.77 683.8 -75.21 697.15 -77.99 710.5 -80.91 723.85 -83.76 737.2 -86.35 750.54 -88.49 763.89 -90.03 777.24 -90.86 790.59 -90.93 803.93 -90.22 817.28 -88.78 830.63 -86.73 843.98 -84.2 857.33 -81.38 870.67 -78.45 884.02 -75.64 897.37 -73.13 910.72 -71.11 924.06 -69.71 937.41 -69.05 950.76 -69.15 964.11 -70.03 977.46 -71.6 990.8 -73.77 1004.15 -76.38 1017.5 -79.25 1030.85 -82.17 1044.19 -84.93 1057.54 -87.35 1070.89 -89.24 1084.24 -90.49 1097.59 -90.99 1110.93 -90.71 1124.28 -89.68 1137.63 -87.96 1150.98 -85.68 1164.32 -83 1177.67 -80.11 1191.02 -77.2 1204.37 -74.5 1217.72 -72.18 1231.06 -70.42 1244.41 -69.33 1257.76 -69 1271.11 -69.44 1284.45 -70.63 1297.8 -72.48 1311.15 -74.86 1324.5 -77.61 1337.85 -80.52 1351.19 -83.4 1364.54 -86.03 1377.89 -88.24 1391.24 -89.87 1404.58 -90.8 1417.93 -90.96 1431.28 -90.35 1444.63 -89.01 1457.98 -87.03 1471.32 -84.56 1484.67 -81.76 1498.02 -78.83 1511.37 -75.99 1524.72 -73.43 1538.06 -71.34 1551.41 -69.86 1564.76 -69.09 1564.75 -54.28 1564.68 -39.46 1564.57 -24.65 1564.42 -9.83 1564.25 4.97 1564.08 19.78 1563.91 34.6 1563.78 49.41 1563.68 64.23 1563.63 79.04 1563.64 93.85 1563.7 108.67 1563.81 123.48 1563.96 138.3 1564.13 153.11 1564.3 167.93 1564.47 182.74 1564.61 197.55 1564.71 212.37 1564.76 227.18 1564.75 242 1564.69 256.81 1564.59 271.62 1564.44 286.44 1564.27 301.25 1564.1 316.07 1563.93 330.88 1563.79 345.7 1563.69 360.51 1563.63 375.32 1563.64 390.14 1563.69 404.95 1563.8 419.77 1563.94 434.58 1564.11 449.39 1564.28 464.21 1564.45 479.02 1564.59 493.84 1564.7 508.65 1564.75 523.46 1564.76 538.28 1564.7 553.09 1564.6 567.91 1564.46 582.72 1564.29 597.54 1564.11 612.35 1563.95 627.16 1563.8 641.98 1563.7 656.79 1563.64 671.61 1563.63 686.42 1563.68 701.23 1563.78 716.05 1563.92 730.86 1564.09 745.68 1564.27 760.49 1564.44 775.3 1564.58 790.12 1564.69 804.93 1564.75 819.75 1564.76 834.56 1564.71 849.38 1564.61 864.19 1564.47 879 1551.14 879.07 1537.8 879.21 1524.46 879.4 1511.12 879.63 1497.78 879.89 1484.44 880.16 1471.1 880.41 1457.76 880.63 1444.42 880.81 1431.08 880.94 1417.74 880.99 1404.4 880.98 1391.06 880.89 1377.72 880.74 1364.38 880.54 1351.04 880.3 1337.7 880.04 1324.36 879.78 1311.02 879.53 1297.69 879.31 1284.35 879.14 1271.01 879.04 1257.67 879 1244.33 879.03 1230.99 879.12 1217.65 879.28 1204.31 879.5 1190.97 879.74 1177.63 880.01 1164.29 880.27 1150.95 880.51 1137.61 880.72 1124.27 880.88 1110.93 880.97 1097.59 880.99 1084.25 880.95 1070.91 880.84 1057.58 880.66 1044.24 880.44 1030.9 880.19 1017.56 879.93 1004.22 879.67 990.88 879.43 977.54 879.23 964.2 879.09 950.86 879.01 937.52 879 924.18 879.06 910.84 879.19 897.5 879.37 884.16 879.6 870.82 879.85 857.48 880.12 844.14 880.38 830.81 880.61 817.47 880.79 804.13 880.92 790.79 880.99 777.45 880.98 764.11 880.91 750.77 880.77 737.43 880.57 724.09 880.34 710.75 880.08 697.41 879.81 684.07 879.56 670.73 879.34 657.39 879.16 644.05 879.05 630.71 879 617.37 879.02 604.04 879.11 590.7 879.26 577.36 879.47 564.02 879.71 550.68 879.97 537.34 880.23 524 880.48 510.66 880.69 497.32 880.86 483.98 880.96 470.64 880.99 457.3 880.96 443.96 880.85 430.62 880.69 417.28 880.47 403.94 880.23 390.61 879.96 377.27 879.7 363.93 879.46 350.59 879.26 337.25 879.1 323.91 879.02 310.57 879 297.23 879.05 283.89 879.17 270.55 879.34 257.21 879.57 243.87 879.82 230.53 880.09 217.19 880.34 203.85 880.58 190.52 880.77 177.18 880.91 163.84 880.98 150.5 880.99 137.16 880.92 123.82 880.79 110.48 880.6 97.14 880.37 83.8 880.11 70.46 879.85 57.12 879.59 43.78 879.36 30.44 879.18 17.1 879.06 3.76 879 -9.56 879.01 -22.9 879.09 -36.24 879.24 -49.58 879.44 -62.92 879.67 -76.26 879.93 -89.6 880.2 -102.94 880.45 -116.28 880.67 -129.62 880.84 -142.96 880.95 -143.34 865.77 -143.61 850.59 -143.74 835.41 -143.72 820.23 -143.55 805.05 -143.25 789.88 -142.85 774.7 -142.38 759.52 -141.89 744.34 -141.43 729.16 -141.05 713.98 -140.77 698.8 -140.63 683.62 -140.64 668.44 -140.8 653.26 -141.1 638.08 -141.5 622.9 -141.96 607.72 -142.45 592.55 -142.91 577.37 -143.3 562.19 -143.59 547.01 -143.73 531.83 -143.73 516.65 -143.58 501.47 -143.29 486.29 -142.9 471.11 -142.43 455.93 -141.94 440.75 -141.48 425.57 -141.08 410.39 -140.8 395.22 -140.64 380.04 -140.64 364.86 -140.78 349.68 -141.06 334.5 -141.45 319.32 -141.91 304.14 -142.4 288.96 -142.87 273.78 -143.27 258.6 -143.56 243.42 -143.73 228.24 -143.74 213.06 -143.6 197.88 -143.33 182.71 -142.94 167.53 -142.48 152.35 -142 137.17 -141.53 121.99 -141.12 106.81 -140.82 91.63 -140.65 76.45 -140.63 61.27 -140.76 46.09 -141.03 30.91 -141.41 15.73 -141.86 0.55 -142.35 -14.61 -142.82 -29.79 -143.23 -44.97 -143.54 -60.15 -143.71 -75.33 -143.74 -90.51" fill="url(#uuunion-grad)"></path><path d="M-143.75 -90.51Q-143.72 -75.33 -143.55 -60.15 -143.24 -44.97 -142.83 -29.79 -142.36 -14.62 -141.87 0.55 -141.42 15.73 -141.04 30.91 -140.77 46.09 -140.64 61.27 -140.66 76.45 -140.83 91.63 -141.13 106.81 -141.54 121.99 -142.01 137.17 -142.49 152.35 -142.95 167.53 -143.34 182.71 -143.61 197.88 -143.75 213.06 -143.74 228.24 -143.57 243.42 -143.28 258.6 -142.88 273.78 -142.41 288.96 -141.92 304.14 -141.46 319.32 -141.07 334.5 -140.79 349.68 -140.65 364.86 -140.65 380.04 -140.81 395.21 -131.93 395.55 -123.05 396.02 -114.17 396.62 -105.29 397.33 -96.42 398.12 -87.54 398.97 -78.66 399.85 -69.78 400.74 -60.91 401.6 -52.03 402.41 -43.15 403.15 -34.27 403.78 -25.4 404.3 -16.52 404.68 0.25 404.97 3.22 404.99 14.34 401.74 25.45 398.24 36.56 394.52 47.66 390.59 58.76 386.5 69.85 382.28 80.93 378 92.01 373.71 103.08 369.47 114.15 365.32 125.22 361.33 136.27 357.55 147.33 353.99 158.38 350.7 169.43 347.68 180.47 344.93 191.51 342.43 202.55 340.16 213.58 338.09 224.61 336.15 235.65 334.29 246.67 332.46 257.7 330.58 268.73 328.6 279.76 326.45 290.78 324.1 301.81 321.48 312.84 318.59 323.86 315.39 334.89 311.9 345.92 308.12 356.95 304.09 367.99 299.84 379.02 295.44 390.06 290.93 401.1 286.39 412.15 281.89 423.2 277.49 434.25 273.27 445.3 269.27 456.36 265.54 467.42 262.12 478.48 259.02 489.55 256.25 500.62 253.79 511.69 251.61 522.77 249.68 533.85 247.93 544.94 246.29 556.03 244.7 567.12 243.08 578.21 241.36 589.31 239.46 600.42 237.32 611.52 234.9 622.63 232.15 633.74 229.04 644.85 225.59 655.96 221.79 667.08 217.68 678.2 213.31 689.32 208.73 700.44 204.01 711.56 199.23 722.68 194.47 733.81 189.81 744.93 185.33 756.06 181.09 767.18 177.16 778.3 173.58 789.43 170.37 800.55 167.55 811.67 165.09 822.79 162.98 833.91 161.15 845.03 159.57 856.15 158.14 867.27 156.79 878.38 155.43 889.49 153.97 900.6 152.33 911.71 150.44 922.82 148.23 933.92 145.65 945.03 142.68 956.13 139.3 967.23 135.52 978.32 131.36 989.42 126.89 1000.51 122.15 1011.6 117.23 1022.69 112.22 1033.78 107.2 1044.87 102.27 1055.95 97.52 1067.04 93.04 1078.12 88.88 1089.2 85.11 1100.28 81.75 1111.37 78.84 1122.45 76.35 1133.53 74.26 1144.61 72.52 1155.69 71.08 1166.77 69.84 1177.85 68.72 1188.93 67.61 1200.01 66.43 1211.09 65.06 1222.18 63.44 1233.26 61.47 1244.35 59.1 1255.44 56.28 1266.53 53.01 1277.62 49.28 1288.71 45.11 1299.81 40.57 1310.9 35.7 1322 30.6 1333.11 25.37 1344.21 20.1 1355.32 14.9 1366.42 9.87 1377.53 5.11 1388.65 0.7 1399.76 -3.29 1410.88 -6.82 1422 -9.86 1422.13 -27.57 1422.25 -45.29 1422.34 -63.01 1422.38 -80.72 1422.37 -98.44 1422.31 -116.15 1422.21 -133.87 1422.08 -151.58 1409.77 -151.71 1397.45 -151.12 1385.13 -149.87 1372.82 -148.02 1360.5 -145.68 1348.19 -143 1335.87 -140.14 1323.55 -137.28 1311.24 -134.57 1298.92 -132.19 1286.61 -130.29 1274.29 -128.97 1261.97 -128.31 1249.66 -128.36 1237.34 -129.11 1225.03 -130.52 1212.71 -132.5 1200.39 -134.93 1188.08 -137.67 1175.76 -140.55 1163.45 -143.39 1151.13 -146.03 1138.82 -148.31 1126.5 -150.08 1114.18 -151.25 1101.87 -151.73 1089.55 -151.51 1077.24 -150.59 1064.92 -149.04 1052.6 -146.94 1040.29 -144.42 1027.97 -141.63 1015.66 -138.74 1003.34 -135.93 991.02 -133.37 978.71 -131.2 966.39 -129.57 954.08 -128.56 941.76 -128.25 929.44 -128.64 917.13 -129.72 904.81 -131.41 892.5 -133.63 880.18 -136.23 867.86 -139.06 855.55 -141.94 843.23 -144.71 830.92 -147.19 818.6 -149.24 806.29 -150.73 793.97 -151.57 781.65 -151.71 769.34 -151.15 757.02 -149.92 744.71 -148.08 732.39 -145.76 720.07 -143.09 707.76 -140.23 695.44 -137.36 683.13 -134.65 670.81 -132.26 658.49 -130.34 646.18 -129 633.86 -128.32 621.55 -128.35 609.23 -129.08 596.91 -130.47 584.6 -132.43 572.28 -134.85 559.97 -137.58 547.65 -140.46 535.33 -143.31 523.02 -145.95 510.7 -148.24 498.39 -150.03 486.07 -151.22 473.75 -151.73 461.44 -151.53 449.12 -150.63 436.81 -149.1 424.49 -147.01 412.18 -144.5 399.86 -141.72 387.54 -138.83 375.23 -136.02 362.91 -133.44 350.6 -131.26 338.28 -129.61 325.96 -128.58 313.65 -128.25 301.33 -128.62 289.02 -129.67 276.7 -131.35 264.38 -133.55 252.07 -136.14 239.75 -138.97 227.44 -141.85 215.12 -144.62 202.8 -147.12 190.49 -149.18 178.17 -150.69 165.86 -151.55 153.54 -151.72 141.22 -151.18 128.91 -149.96 116.59 -148.15 104.28 -145.84 91.96 -143.18 79.65 -140.32 67.33 -137.45 55.01 -134.73 42.7 -132.33 30.38 -130.39 18.07 -129.03 5.75 -128.33 -6.56 -128.34 -18.87 -129.05 -31.19 -130.41 -43.5 -132.36 -55.82 -134.77 -68.14 -137.49 -80.45 -140.37 -92.77 -143.22 -105.08 -145.88 -117.4 -148.18 -129.72 -149.99 -146.94 -143.83 -149.28 -121.19 -146.59 -105.87 -143.75 -90.51" fill="url(#uuunion-grad2)" filter="url(#uuunion-blur)"></path><path d="M1421.85 314.08Q1430.73 314.35 1439.62 314.79 1448.5 315.4 1457.38 316.16 1466.27 317.03 1475.15 318 1484.03 319.03 1492.92 320.1 1501.8 321.16 1510.68 322.18 1519.57 323.13 1528.45 323.99 1537.33 324.72 1546.22 325.3 1555.1 325.71 1563.98 325.94 1563.81 343.23 1563.69 360.51 1563.63 377.79 1563.65 395.08 1563.74 412.36 1563.89 429.64 1564.08 446.92 1564.28 464.21 1564.48 481.49 1564.63 498.77 1564.73 516.06 1564.76 533.34 1564.71 550.62 1564.6 567.91 1564.43 585.19 1564.23 602.47 1564.03 619.76 1563.85 637.04 1563.71 654.32 1563.64 671.61 1563.64 688.89 1563.71 706.17 1563.85 723.46 1564.03 740.74 1564.24 758.02 1564.44 775.3 1564.6 792.59 1564.72 809.87 1564.76 827.15 1564.73 844.44 1564.63 861.72 1564.47 879 1552.24 879.07 1540 879.18 1527.77 879.35 1515.53 879.55 1503.3 879.78 1491.06 880.02 1478.82 880.26 1466.59 880.49 1454.35 880.69 1442.12 880.84 1429.88 880.94 1417.65 880.99 1405.41 880.98 1393.18 880.91 1380.94 880.79 1368.7 880.61 1356.47 880.41 1344.23 880.17 1332 879.93 1319.76 879.69 1307.53 879.47 1295.29 879.28 1283.05 879.13 1270.82 879.03 1258.58 879 1246.35 879.02 1234.11 879.1 1221.88 879.23 1209.64 879.41 1197.4 879.62 1185.17 879.85 1172.93 880.1 1160.7 880.34 1148.46 880.55 1136.23 880.74 1123.99 880.88 1111.75 880.97 1099.52 880.99 1087.28 880.97 1075.05 880.88 1062.81 880.74 1050.58 880.55 1038.34 880.34 1026.11 880.1 1013.87 879.85 1001.63 879.62 989.4 879.41 977.16 879.23 964.93 879.09 952.69 879.02 940.46 879 928.22 879.03 915.98 879.13 903.75 879.28 891.51 879.47 879.28 879.69 867.04 879.93 854.81 880.17 842.57 880.41 830.33 880.61 818.1 880.79 805.86 880.91 793.63 880.98 781.39 880.99 769.16 880.94 756.92 880.84 744.68 880.68 732.45 880.49 720.21 880.26 707.98 880.02 695.74 879.78 683.51 879.55 671.27 879.35 659.04 879.18 646.8 879.06 634.56 879 622.33 879 610.09 879.06 597.86 879.17 585.62 879.33 573.39 879.53 561.15 879.76 548.91 880.01 536.68 880.25 524.44 880.47 512.21 880.67 499.97 880.83 487.74 880.94 475.5 880.99 463.26 880.98 451.03 880.92 438.79 880.8 426.56 880.63 414.32 880.42 402.09 880.19 389.85 879.95 377.61 879.71 365.38 879.48 353.14 879.29 340.91 879.14 328.67 879.04 316.44 879 304.2 879.01 291.96 879.09 279.73 879.22 267.49 879.39 255.26 879.6 243.02 879.84 230.79 880.08 218.55 880.32 206.32 880.54 194.08 880.73 181.84 880.87 169.61 880.96 157.37 880.99 145.14 880.97 132.9 880.89 120.67 880.75 108.43 880.57 96.19 880.35 83.96 880.12 71.72 879.87 59.49 879.64 47.25 879.42 35.02 879.24 22.78 879.1 4.31 874.07 -2.11 859.25 -2.26 849.37 -2.35 839.5 -2.38 829.62 -2.36 819.75 -1.95 804.93 -1.13 800 11.48 793.82 24.12 787.63 36.77 781.42 49.43 775.16 62.1 768.87 74.77 762.53 87.43 756.15 100.1 749.73 112.76 743.3 125.41 736.87 138.05 730.45 150.68 724.07 163.29 717.74 175.88 711.47 188.46 705.28 201.02 699.18 213.56 693.15 226.08 687.2 238.59 681.3 251.07 675.44 263.53 669.59 275.98 663.71 288.41 657.79 300.83 651.8 313.24 645.7 325.64 639.48 338.03 633.13 350.41 626.64 362.79 620.03 375.17 613.31 387.55 606.5 399.94 599.63 412.32 592.75 424.72 585.9 437.12 579.11 449.54 572.43 461.96 565.9 474.4 559.53 486.85 553.36 499.31 547.37 511.79 541.57 524.28 535.93 536.78 530.43 549.29 525.01 561.82 519.63 574.36 514.23 586.91 508.76 599.46 503.16 612.02 497.38 624.59 491.39 637.16 485.16 649.73 478.68 662.31 471.96 674.88 465 687.45 457.87 700.02 450.59 712.58 443.24 725.14 435.89 737.69 428.59 750.24 421.43 762.78 414.47 775.31 407.76 787.83 401.33 800.34 395.21 810.05 394.31 819.76 393.59 829.48 393.01 839.19 392.56 848.9 392.21 858.61 391.92 868.32 391.66 878.03 391.39 887.73 391.08 897.44 390.68 907.15 390.16 916.86 389.5 926.57 388.68 936.27 387.67 945.98 386.47 955.69 385.07 965.4 383.48 975.1 381.7 984.81 379.77 994.52 377.69 1004.22 375.51 1013.93 373.26 1023.63 370.98 1033.34 368.69 1043.05 366.45 1052.75 364.3 1062.46 362.25 1072.17 360.36 1081.87 358.63 1091.58 357.1 1101.29 355.76 1111 354.64 1120.7 353.72 1130.41 352.99 1140.12 352.43 1149.83 352.02 1159.53 351.73 1169.24 351.52 1178.95 351.35 1188.66 351.18 1198.37 350.98 1208.08 350.7 1217.79 350.3 1227.51 349.75 1237.22 349.03 1246.93 348.11 1256.64 346.98 1266.36 345.63 1276.07 344.07 1285.78 342.31 1295.5 340.36 1305.21 338.26 1314.93 336.02 1324.65 333.7 1334.36 331.32 1344.08 328.93 1353.8 326.58 1363.52 324.31 1373.24 322.15 1382.96 320.13 1392.68 318.3 1402.4 316.67 1412.13 315.26 1421.85 314.08" fill="url(#uuunion-grad3)" filter="url(#uuunion-blur2)"></path></svg>