<svg xmlns="http://www.w3.org/2000/svg" version="1.1" xmlns:xlink="http://www.w3.org/1999/xlink" xmlns:svgjs="http://svgjs.dev/svgjs" viewBox="0 0 1422 800"><defs><filter id="uuunion-blur" x="-100%" y="-100%" width="400%" height="400%" color-interpolation-filters="sRGB">
        <feGaussianBlur in="SourceGraphic" stdDeviation="7.5 0" result="blur"></feGaussianBlur>
        <feDropShadow stdDeviation="12.307692307692308" in="blur" dx="10" dy="10" flood-color="hsl(0, 0%, 81%)" flood-opacity="0.25" x="0%" y="0%" width="100%" height="100%"></feDropShadow>
      </filter><filter id="uuunion-blur2" x="-100%" y="-100%" width="400%" height="400%" color-interpolation-filters="sRGB">
        <feGaussianBlur in="SourceGraphic" stdDeviation="7.5 0" result="blur"></feGaussianBlur>
        <feDropShadow stdDeviation="12.307692307692308" in="blur" dx="-10" dy="-10" flood-color="hsl(0, 0%, 81%)" flood-opacity="0.25" x="0%" y="0%" width="100%" height="100%"></feDropShadow>
      </filter><linearGradient gradientTransform="rotate(0, 0.5, 0.5)" x1="50%" y1="0%" x2="50%" y2="100%" id="uuunion-grad"><stop stop-color="#e9e9f2" offset="10%"></stop><stop stop-color="hsl(0, 0%, 81%)" offset="90%"></stop></linearGradient><linearGradient gradientTransform="rotate(135, 0.5, 0.5)" x1="50%" y1="0%" x2="50%" y2="100%" id="uuunion-grad2"><stop stop-color="#e9e9f2" offset="25%"></stop><stop stop-color="hsl(0, 0%, 81%)" offset="100%"></stop></linearGradient><linearGradient gradientTransform="rotate(333, 0.5, 0.5)" x1="50%" y1="0%" x2="50%" y2="100%" id="uuunion-grad3"><stop stop-color="#e9e9f2" offset="0%"></stop><stop stop-color="hsl(0, 0%, 81%)" offset="75%"></stop></linearGradient></defs><path d="M-143.68 -85.56Q-130.33 -88.76 -116.99 -90.64 -103.64 -90.89 -90.29 -89.5 -76.95 -86.66 -63.6 -82.81 -50.25 -78.53 -36.9 -74.48 -23.56 -71.26 -10.21 -69.37 3.13 -69.09 16.47 -70.47 29.82 -73.29 43.17 -77.13 56.51 -81.4 69.86 -85.47 83.21 -88.7 96.56 -90.61 109.9 -90.91 123.25 -89.55 136.6 -86.74 149.94 -82.91 163.29 -78.64 176.64 -74.57 189.98 -71.33 203.33 -69.4 216.68 -69.08 230.03 -70.41 243.37 -73.2 256.72 -77.03 270.07 -81.3 283.41 -85.37 296.76 -88.63 310.11 -90.58 323.45 -90.92 336.8 -89.6 350.15 -86.83 363.5 -83.02 376.84 -78.74 390.19 -74.66 403.54 -71.39 416.88 -69.43 430.23 -69.06 443.58 -70.36 456.93 -73.12 470.27 -76.92 483.62 -81.19 496.97 -85.28 510.31 -88.57 523.66 -90.55 537.01 -90.93 550.36 -89.65 563.7 -86.91 577.05 -83.12 590.4 -78.85 603.74 -74.76 617.09 -71.46 630.44 -69.46 643.78 -69.05 657.13 -70.31 670.48 -73.04 683.83 -76.82 697.17 -81.09 710.52 -85.19 723.87 -88.5 737.21 -90.52 750.56 -90.94 763.91 -89.71 777.26 -86.99 790.6 -83.22 803.95 -78.96 817.3 -74.85 830.64 -71.53 843.99 -69.49 857.34 -69.04 870.69 -70.26 884.03 -72.96 897.38 -76.72 910.73 -80.98 924.07 -85.09 937.42 -88.43 950.77 -90.49 964.11 -90.95 977.46 -89.76 990.81 -87.08 1004.16 -83.32 1017.5 -79.06 1030.85 -74.95 1044.2 -71.59 1057.54 -69.52 1070.89 -69.03 1084.24 -70.21 1097.59 -72.87 1110.93 -76.62 1124.28 -80.87 1137.63 -85 1150.97 -88.36 1164.32 -90.46 1177.67 -90.96 1191.02 -89.8 1204.36 -87.16 1217.71 -83.42 1231.06 -79.17 1244.4 -75.04 1257.75 -71.66 1271.1 -69.55 1284.45 -69.02 1297.79 -70.16 1311.14 -72.79 1324.49 -76.52 1337.83 -80.77 1351.18 -84.9 1364.53 -88.29 1377.88 -90.42 1391.22 -90.97 1404.57 -89.85 1417.92 -87.24 1431.26 -83.52 1444.61 -79.27 1457.96 -75.14 1471.31 -71.73 1484.65 -69.58 1498 -69.02 1511.35 -70.12 1524.69 -72.71 1538.04 -76.42 1558.04 -75.19 1564.6 -54.64 1564.49 -39.56 1564.37 -24.48 1564.24 -9.4 1564.11 5.67 1563.98 20.76 1563.86 35.84 1563.76 50.92 1563.69 66 1563.64 81.09 1563.63 96.17 1563.65 111.25 1563.7 126.33 1563.77 141.41 1563.87 156.5 1563.99 171.58 1564.12 186.66 1564.26 201.74 1564.39 216.82 1564.51 231.91 1564.61 246.99 1564.69 262.07 1564.74 277.15 1564.76 292.23 1564.75 307.32 1564.71 322.4 1564.63 337.48 1564.54 352.56 1564.42 367.64 1564.29 382.73 1564.16 397.81 1564.03 412.89 1563.9 427.97 1563.8 443.05 1563.71 458.14 1563.66 473.22 1563.63 488.3 1563.64 503.38 1563.67 518.46 1563.74 533.55 1563.83 548.63 1563.95 563.71 1564.07 578.79 1564.21 593.87 1564.34 608.96 1564.46 624.04 1564.57 639.12 1564.66 654.2 1564.73 669.28 1564.76 684.37 1564.76 699.45 1564.73 714.53 1564.67 729.61 1564.58 744.69 1564.47 759.78 1564.34 774.86 1564.21 789.94 1564.08 805.02 1563.95 820.1 1563.84 835.19 1563.74 850.27 1563.67 865.35 1563.64 880.43 1550.32 880.06 1537.01 879.67 1523.69 879.33 1510.38 879.1 1497.06 879 1483.75 879.05 1470.43 879.24 1457.12 879.55 1443.8 879.93 1430.49 880.32 1417.17 880.65 1403.86 880.89 1390.54 880.99 1377.23 880.94 1363.91 880.75 1350.6 880.44 1337.28 880.07 1323.97 879.68 1310.66 879.34 1297.34 879.1 1284.03 879 1270.71 879.05 1257.4 879.24 1244.08 879.54 1230.77 879.92 1217.45 880.31 1204.14 880.65 1190.82 880.89 1177.51 880.99 1164.19 880.95 1150.88 880.76 1137.56 880.45 1124.25 880.07 1110.93 879.69 1097.62 879.35 1084.3 879.11 1070.99 879 1057.67 879.04 1044.36 879.23 1031.04 879.54 1017.73 879.91 1004.42 880.3 991.1 880.64 977.79 880.88 964.47 880.99 951.16 880.95 937.84 880.76 924.53 880.46 911.21 880.08 897.9 879.7 884.58 879.36 871.27 879.11 857.95 879 844.64 879.04 831.32 879.23 818.01 879.53 804.69 879.9 791.38 880.29 778.06 880.63 764.75 880.88 751.43 880.99 738.12 880.95 724.81 880.77 711.49 880.47 698.18 880.09 684.86 879.71 671.55 879.36 658.23 879.11 644.92 879 631.6 879.04 618.29 879.22 604.97 879.52 591.66 879.89 578.34 880.28 565.03 880.62 551.71 880.87 538.4 880.99 525.08 880.95 511.77 880.77 498.45 880.48 485.14 880.1 471.83 879.72 458.51 879.37 445.2 879.12 431.88 879 418.57 879.03 405.25 879.21 391.94 879.51 378.62 879.88 365.31 880.27 351.99 880.62 338.68 880.87 325.36 880.99 312.05 880.96 298.73 880.78 285.42 880.48 272.1 880.11 258.79 879.73 245.48 879.38 232.16 879.12 218.85 879 205.53 879.03 192.22 879.21 178.9 879.5 165.59 879.87 152.27 880.26 138.96 880.61 125.64 880.86 112.33 880.99 99.01 880.96 85.7 880.79 72.38 880.49 59.07 880.12 45.75 879.73 32.44 879.39 19.13 879.13 5.81 879 -7.49 879.03 -20.81 879.2 -34.12 879.49 -47.44 879.86 -60.75 880.25 -74.07 880.6 -87.38 880.86 -100.7 880.99 -114.01 880.96 -127.33 880.79 -140.64 880.5 -140.75 865.41 -140.93 850.31 -141.19 835.22 -141.5 820.12 -141.86 805.03 -142.23 789.93 -142.59 774.84 -142.94 759.74 -143.24 744.65 -143.49 729.55 -143.65 714.46 -143.74 699.36 -143.74 684.27 -143.65 669.17 -143.48 654.08 -143.23 638.98 -142.93 623.89 -142.58 608.79 -142.22 593.7 -141.85 578.6 -141.49 563.51 -141.18 548.41 -140.93 533.32 -140.74 518.22 -140.64 503.13 -140.62 488.03 -140.7 472.94 -140.85 457.85 -141.08 442.75 -141.38 427.66 -141.72 412.56 -142.08 397.47 -142.45 382.37 -142.81 367.28 -143.13 352.18 -143.4 337.09 -143.6 321.99 -143.72 306.9 -143.75 291.8 -143.7 276.71 -143.56 261.61 -143.34 246.52 -143.05 231.42 -142.72 216.33 -142.36 201.23 -141.99 186.14 -141.63 171.04 -141.3 155.95 -141.02 140.85 -140.8 125.76 -140.67 110.66 -140.62 95.57 -140.66 80.47 -140.78 65.38 -140.98 50.28 -141.26 35.19 -141.58 20.09 -141.94 5 -142.31 -10.08 -142.67 -25.18 -143.01 -40.27 -143.3 -55.37 -143.53 -70.46 -143.68 -85.56" fill="url(#uuunion-grad)"></path><path d="M-143.69 -85.56Q-143.54 -70.46 -143.31 -55.37 -143.02 -40.27 -142.68 -25.18 -142.32 -10.08 -141.95 5 -141.59 20.1 -141.27 35.19 -140.99 50.29 -140.79 65.38 -140.67 80.48 -140.63 95.57 -140.68 110.67 -140.81 125.76 -141.03 140.86 -141.31 155.95 -141.64 171.05 -142 186.14 -142.37 201.23 -142.73 216.33 -143.06 231.42 -143.35 246.52 -143.57 261.61 -143.71 276.71 -143.76 291.8 -143.73 306.9 -143.61 321.99 -143.41 337.09 -143.14 352.18 -142.82 367.28 -137.83 389.41 -124.32 395.65 -115.43 395.16 -106.54 395 -97.66 395.17 -88.77 395.67 -79.88 396.47 -71 397.51 -62.11 398.71 -53.22 400.01 -44.34 401.3 -35.45 402.5 -26.56 403.53 -17.68 404.33 -0.88 404.95 2.08 404.99 13.1 401.54 24.13 397.59 35.16 393.22 46.18 388.56 57.22 383.75 68.25 378.99 79.28 374.44 90.32 370.27 101.36 366.58 112.4 363.44 123.45 360.87 134.49 358.81 145.54 357.16 156.6 355.77 167.65 354.45 178.71 353.01 189.77 351.28 200.84 349.1 211.9 346.36 222.97 343.02 234.05 339.08 245.12 334.64 256.2 329.81 267.29 324.78 278.37 319.75 289.46 314.93 300.55 310.48 311.64 306.56 322.74 303.27 333.84 300.62 344.94 298.57 356.04 297.02 367.15 295.81 378.26 294.73 389.37 293.58 400.48 292.13 411.6 290.21 422.72 287.69 433.83 284.49 444.95 280.61 456.08 276.13 467.2 271.17 478.32 265.94 489.45 260.65 500.57 255.53 511.7 250.79 522.83 246.62 533.96 243.12 545.08 240.35 556.21 238.27 567.34 236.79 578.47 235.73 589.6 234.89 600.73 234.01 611.86 232.86 622.98 231.24 634.11 228.96 645.24 225.95 656.36 222.17 667.49 217.68 678.61 212.64 689.73 207.22 700.85 201.68 711.97 196.26 723.09 191.22 734.21 186.76 745.32 183.02 756.44 180.09 767.55 177.94 778.66 176.48 789.77 175.55 800.88 174.91 811.98 174.31 823.09 173.47 834.19 172.15 845.29 170.16 856.39 167.37 867.49 163.73 878.58 159.29 889.68 154.19 900.77 148.62 911.87 142.84 922.96 137.13 934.05 131.77 945.13 126.99 956.22 122.99 967.31 119.84 978.39 117.58 989.48 116.11 1000.56 115.27 1011.64 114.81 1022.72 114.47 1033.8 113.94 1044.89 112.95 1055.97 111.27 1067.05 108.74 1078.13 105.29 1089.21 100.94 1100.29 95.81 1111.37 90.12 1122.45 84.13 1133.53 78.14 1144.61 72.45 1155.69 67.34 1166.77 63.03 1177.86 59.64 1188.94 57.22 1200.02 55.69 1211.11 54.9 1222.2 54.6 1233.28 54.5 1244.37 54.28 1255.46 53.63 1266.56 52.28 1277.65 50.05 1288.74 46.82 1299.84 42.6 1310.94 37.5 1322.04 31.73 1333.14 25.54 1344.24 19.28 1355.34 13.26 1366.45 7.81 1377.55 3.16 1388.66 -0.5 1399.77 -3.13 1410.88 -4.76 1422 -5.54 1422.1 -23.16 1422.2 -40.78 1422.28 -58.41 1422.34 -76.03 1422.38 -93.65 1422.38 -111.27 1422.36 -128.89 1422.3 -146.51 1409.98 -149.55 1397.65 -151.35 1385.33 -151.68 1373.01 -150.49 1360.68 -147.94 1348.36 -144.36 1336.03 -140.21 1323.71 -136.04 1311.38 -132.38 1299.06 -129.7 1286.73 -128.36 1274.41 -128.53 1262.08 -130.19 1249.76 -133.12 1237.43 -136.94 1225.11 -141.16 1212.78 -145.22 1200.46 -148.61 1188.13 -150.88 1175.81 -151.74 1163.48 -151.08 1151.16 -148.98 1138.84 -145.71 1126.51 -141.7 1114.19 -137.47 1101.86 -133.57 1089.54 -130.5 1077.21 -128.66 1064.89 -128.3 1052.56 -129.45 1040.24 -131.97 1027.91 -135.53 1015.59 -139.67 1003.26 -143.85 990.94 -147.53 978.61 -150.24 966.29 -151.61 953.96 -151.48 941.64 -149.86 929.31 -146.96 916.99 -143.16 904.67 -138.94 892.34 -134.87 880.02 -131.45 867.69 -129.15 855.37 -128.25 843.04 -128.88 830.72 -130.94 818.39 -134.19 806.07 -138.18 793.74 -142.41 781.42 -146.33 769.09 -149.42 756.77 -151.3 744.44 -151.7 732.12 -150.59 719.79 -148.1 707.47 -144.57 695.14 -140.43 682.82 -136.25 670.5 -132.54 658.17 -129.81 645.85 -128.39 633.52 -128.49 621.2 -130.07 608.87 -132.94 596.55 -136.73 584.22 -140.94 571.9 -145.02 559.57 -148.46 547.25 -150.8 534.92 -151.73 522.6 -151.15 510.27 -149.11 497.95 -145.9 485.62 -141.92 473.3 -137.69 460.97 -133.75 448.65 -130.63 436.33 -128.72 424 -128.28 411.68 -129.35 399.35 -131.81 387.03 -135.32 374.7 -139.45 362.38 -143.64 350.05 -147.36 337.73 -150.13 325.4 -151.58 313.08 -151.53 300.75 -149.98 288.43 -147.14 276.1 -143.37 263.78 -139.16 251.45 -135.06 239.13 -131.61 226.8 -129.24 214.48 -128.26 202.15 -128.81 189.83 -130.81 177.51 -134 165.18 -137.96 152.86 -142.2 140.53 -146.14 128.21 -149.29 115.88 -151.23 103.56 -151.72 91.23 -150.68 78.91 -148.26 66.58 -144.77 54.26 -140.65 41.93 -136.45 29.61 -132.71 17.28 -129.92 4.96 -128.43 -7.36 -128.44 -19.68 -129.95 -32.01 -132.77 -44.33 -136.52 -56.65 -140.72 -68.98 -144.83 -81.3 -148.31 -93.63 -150.71 -105.95 -151.72 -118.28 -151.22 -130.6 -149.25 -142.93 -146.09 -155.25 -142.13 -152.49 -128.08 -149.64 -113.96 -146.71 -99.79 -143.69 -85.56" fill="url(#uuunion-grad2)" filter="url(#uuunion-blur)"></path><path d="M1422.36 316.67Q1431.26 318.07 1440.15 319.6 1449.05 321.16 1457.95 322.65 1466.85 323.95 1475.75 324.98 1484.64 325.67 1493.54 325.98 1502.44 325.88 1511.34 325.38 1520.23 324.52 1529.13 323.35 1538.03 321.95 1546.93 320.41 1555.83 318.85 1564.72 317.37 1564.65 334.97 1564.54 352.56 1564.4 370.16 1564.25 387.75 1564.09 405.35 1563.94 422.94 1563.81 440.54 1563.71 458.14 1563.65 475.73 1563.63 493.33 1563.65 510.92 1563.71 528.52 1563.82 546.11 1563.95 563.71 1564.09 581.31 1564.25 598.9 1564.4 616.5 1564.54 634.09 1564.65 651.69 1564.73 669.28 1564.76 686.88 1564.75 704.48 1564.7 722.07 1564.61 739.67 1564.49 757.26 1564.34 774.86 1564.19 792.45 1564.03 810.05 1563.89 827.65 1563.77 845.24 1563.68 862.84 1563.64 880.43 1551.42 880.09 1539.21 879.73 1527 879.41 1514.78 879.16 1502.57 879.02 1490.36 879 1478.15 879.11 1465.93 879.34 1453.72 879.65 1441.51 880 1429.29 880.35 1417.08 880.66 1404.87 880.88 1392.65 880.99 1380.44 880.97 1368.23 880.83 1356.01 880.58 1343.8 880.25 1331.59 879.9 1319.38 879.55 1307.16 879.27 1294.95 879.07 1282.74 879 1270.52 879.05 1258.31 879.22 1246.1 879.49 1233.88 879.83 1221.67 880.19 1209.46 880.52 1197.24 880.79 1185.03 880.95 1172.82 880.99 1160.61 880.91 1148.39 880.71 1136.18 880.41 1123.97 880.07 1111.75 879.71 1099.54 879.39 1087.33 879.15 1075.11 879.02 1062.9 879.01 1050.69 879.12 1038.48 879.35 1026.26 879.67 1014.05 880.02 1001.84 880.37 989.62 880.67 977.41 880.89 965.2 880.99 952.98 880.96 940.77 880.81 928.56 880.56 916.34 880.23 904.13 879.88 891.92 879.53 879.71 879.25 867.49 879.06 855.28 879 843.07 879.05 830.85 879.23 818.64 879.51 806.43 879.85 794.21 880.21 782 880.54 769.79 880.8 757.57 880.96 745.36 880.99 733.15 880.9 720.94 880.69 708.72 880.39 696.51 880.05 684.3 879.69 672.08 879.37 659.87 879.14 647.66 879.01 635.44 879.01 623.23 879.14 611.02 879.37 598.81 879.69 586.59 880.04 574.38 880.39 562.17 880.69 549.95 880.9 537.74 880.99 525.53 880.96 513.31 880.8 501.1 880.54 488.89 880.21 476.67 879.86 464.46 879.52 452.25 879.24 440.04 879.06 427.82 879 415.61 879.06 403.4 879.25 391.18 879.53 378.97 879.87 366.76 880.23 354.54 880.56 342.33 880.81 330.12 880.96 317.9 880.99 305.69 880.89 293.48 880.68 281.27 880.37 269.05 880.02 256.84 879.67 244.63 879.36 232.41 879.13 220.2 879.01 207.99 879.01 195.77 879.15 183.56 879.39 171.35 879.71 159.13 880.06 146.92 880.41 134.71 880.7 122.5 880.91 110.28 880.99 98.07 880.95 85.86 880.79 73.64 880.52 61.43 880.19 49.22 879.83 37 879.5 24.79 879.22 6.44 874.08 0.22 859.25 0.11 849.37 -0.03 839.5 -0.2 829.62 -0.39 819.75 -0.45 804.93 0.18 800 12.54 793.82 24.9 787.61 37.27 781.35 49.65 775.03 62.03 768.64 74.42 762.22 86.81 755.78 99.22 749.38 111.63 743.05 124.06 736.82 136.5 730.71 148.95 724.72 161.41 718.81 173.88 712.96 186.37 707.09 198.86 701.15 211.37 695.07 223.89 688.82 236.42 682.38 248.96 675.75 261.51 668.96 274.07 662.1 286.63 655.23 299.21 648.45 311.78 641.84 324.37 635.48 336.95 629.4 349.54 623.58 362.13 618 374.73 612.57 387.32 607.19 399.91 601.73 412.5 596.08 425.08 590.15 437.66 583.86 450.24 577.2 462.81 570.22 475.37 562.99 487.93 555.64 500.48 548.31 513.03 541.17 525.57 534.33 538.1 527.9 550.62 521.93 563.13 516.39 575.64 511.21 588.14 506.25 600.63 501.35 613.12 496.31 625.6 490.98 638.07 485.21 650.54 478.91 663.01 472.08 675.47 464.76 687.93 457.1 700.38 449.26 712.84 441.47 725.29 433.94 737.74 426.84 750.2 420.32 762.65 414.42 775.1 409.13 787.56 404.33 800.02 399.83 809.73 400 819.44 400.08 829.15 399.95 838.87 399.53 848.58 398.75 858.29 397.56 868 395.96 877.72 393.97 887.43 391.65 897.15 389.1 906.86 386.4 916.58 383.68 926.29 381.06 936.01 378.65 945.73 376.55 955.45 374.82 965.16 373.51 974.88 372.63 984.6 372.15 994.32 372 1004.04 372.1 1013.76 372.35 1023.48 372.62 1033.21 372.78 1042.93 372.72 1052.65 372.35 1062.37 371.59 1072.1 370.4 1081.82 368.76 1091.55 366.72 1101.27 364.32 1111 361.67 1120.72 358.88 1130.45 356.07 1140.17 353.36 1149.9 350.88 1159.63 348.73 1169.35 346.98 1179.08 345.68 1188.81 344.83 1198.54 344.4 1208.27 344.33 1218 344.53 1227.73 344.87 1237.45 345.23 1247.18 345.48 1256.92 345.5 1266.65 345.17 1276.38 344.43 1286.11 343.23 1295.84 341.57 1305.57 339.46 1315.3 336.99 1325.03 334.25 1334.77 331.36 1344.5 328.45 1354.23 325.65 1363.96 323.1 1373.69 320.9 1383.43 319.13 1393.16 317.84 1402.89 317.02 1412.63 316.66 1422.36 316.67" fill="url(#uuunion-grad3)" filter="url(#uuunion-blur2)"></path></svg>