<svg xmlns="http://www.w3.org/2000/svg" version="1.1" xmlns:xlink="http://www.w3.org/1999/xlink" xmlns:svgjs="http://svgjs.dev/svgjs" viewBox="0 0 2400 800" opacity="1"><defs><linearGradient x1="50%" y1="0%" x2="50%" y2="100%" id="oooscillate-grad"><stop stop-color="#3b82f6" stop-opacity="1" offset="0%"></stop><stop stop-color="#3b82f6" stop-opacity="1" offset="100%"></stop></linearGradient></defs><g stroke-width="3.5" stroke="url(#oooscillate-grad)" fill="none" stroke-linecap="round"><path d="M 0 1540 Q 600 -100 1200 400 Q 1800 900 2400 1540" stroke-dasharray="4 8" opacity="0.74"></path><path d="M 0 1512 Q 600 -100 1200 400 Q 1800 900 2400 1512" stroke-dasharray="7 2" opacity="0.22"></path><path d="M 0 1484 Q 600 -100 1200 400 Q 1800 900 2400 1484" stroke-dasharray="8 5" opacity="0.61"></path><path d="M 0 1456 Q 600 -100 1200 400 Q 1800 900 2400 1456" stroke-dasharray="0 2" opacity="0.21"></path><path d="M 0 1428 Q 600 -100 1200 400 Q 1800 900 2400 1428" stroke-dasharray="6 1" opacity="0.18"></path><path d="M 0 1400 Q 600 -100 1200 400 Q 1800 900 2400 1400" stroke-dasharray="4 8" opacity="0.19"></path><path d="M 0 1372 Q 600 -100 1200 400 Q 1800 900 2400 1372" stroke-dasharray="2 5" opacity="0.35"></path><path d="M 0 1344 Q 600 -100 1200 400 Q 1800 900 2400 1344" stroke-dasharray="3 4" opacity="0.81"></path><path d="M 0 1316 Q 600 -100 1200 400 Q 1800 900 2400 1316" stroke-dasharray="5 3" opacity="0.27"></path><path d="M 0 1288 Q 600 -100 1200 400 Q 1800 900 2400 1288" stroke-dasharray="6 0" opacity="0.51"></path><path d="M 0 1260 Q 600 -100 1200 400 Q 1800 900 2400 1260" stroke-dasharray="4 6" opacity="0.91"></path><path d="M 0 1232 Q 600 -100 1200 400 Q 1800 900 2400 1232" stroke-dasharray="5 7" opacity="0.41"></path><path d="M 0 1204 Q 600 -100 1200 400 Q 1800 900 2400 1204" stroke-dasharray="7 0" opacity="0.46"></path><path d="M 0 1176 Q 600 -100 1200 400 Q 1800 900 2400 1176" stroke-dasharray="7 7" opacity="0.64"></path><path d="M 0 1148 Q 600 -100 1200 400 Q 1800 900 2400 1148" stroke-dasharray="2 6" opacity="0.95"></path><path d="M 0 1120 Q 600 -100 1200 400 Q 1800 900 2400 1120" stroke-dasharray="1 6" opacity="0.95"></path><path d="M 0 1092 Q 600 -100 1200 400 Q 1800 900 2400 1092" stroke-dasharray="7 2" opacity="0.34"></path><path d="M 0 1064 Q 600 -100 1200 400 Q 1800 900 2400 1064" stroke-dasharray="2 6" opacity="0.14"></path><path d="M 0 1036 Q 600 -100 1200 400 Q 1800 900 2400 1036" stroke-dasharray="5 1" opacity="0.65"></path><path d="M 0 1008 Q 600 -100 1200 400 Q 1800 900 2400 1008" stroke-dasharray="0 3" opacity="0.53"></path><path d="M 0 980 Q 600 -100 1200 400 Q 1800 900 2400 980" stroke-dasharray="1 1" opacity="0.40"></path><path d="M 0 952 Q 600 -100 1200 400 Q 1800 900 2400 952" stroke-dasharray="8 6" opacity="0.12"></path><path d="M 0 924 Q 600 -100 1200 400 Q 1800 900 2400 924" stroke-dasharray="6 2" opacity="0.07"></path><path d="M 0 896 Q 600 -100 1200 400 Q 1800 900 2400 896" stroke-dasharray="7 7" opacity="0.25"></path><path d="M 0 868 Q 600 -100 1200 400 Q 1800 900 2400 868" stroke-dasharray="2 2" opacity="0.21"></path><path d="M 0 840 Q 600 -100 1200 400 Q 1800 900 2400 840" stroke-dasharray="1 4" opacity="0.60"></path><path d="M 0 812 Q 600 -100 1200 400 Q 1800 900 2400 812" stroke-dasharray="2 0" opacity="0.53"></path><path d="M 0 784 Q 600 -100 1200 400 Q 1800 900 2400 784" stroke-dasharray="0 2" opacity="0.08"></path><path d="M 0 756 Q 600 -100 1200 400 Q 1800 900 2400 756" stroke-dasharray="6 3" opacity="0.33"></path><path d="M 0 728 Q 600 -100 1200 400 Q 1800 900 2400 728" stroke-dasharray="3 8" opacity="0.26"></path><path d="M 0 700 Q 600 -100 1200 400 Q 1800 900 2400 700" stroke-dasharray="2 2" opacity="1.00"></path><path d="M 0 672 Q 600 -100 1200 400 Q 1800 900 2400 672" stroke-dasharray="8 7" opacity="0.50"></path><path d="M 0 644 Q 600 -100 1200 400 Q 1800 900 2400 644" stroke-dasharray="1 4" opacity="0.24"></path><path d="M 0 616 Q 600 -100 1200 400 Q 1800 900 2400 616" stroke-dasharray="7 7" opacity="0.98"></path><path d="M 0 588 Q 600 -100 1200 400 Q 1800 900 2400 588" stroke-dasharray="3 5" opacity="0.07"></path><path d="M 0 560 Q 600 -100 1200 400 Q 1800 900 2400 560" stroke-dasharray="7 6" opacity="0.76"></path><path d="M 0 532 Q 600 -100 1200 400 Q 1800 900 2400 532" stroke-dasharray="1 1" opacity="0.89"></path><path d="M 0 504 Q 600 -100 1200 400 Q 1800 900 2400 504" stroke-dasharray="7 8" opacity="0.08"></path><path d="M 0 476 Q 600 -100 1200 400 Q 1800 900 2400 476" stroke-dasharray="6 5" opacity="0.20"></path><path d="M 0 448 Q 600 -100 1200 400 Q 1800 900 2400 448" stroke-dasharray="2 0" opacity="0.53"></path><path d="M 0 420 Q 600 -100 1200 400 Q 1800 900 2400 420" stroke-dasharray="8 7" opacity="0.14"></path><path d="M 0 392 Q 600 -100 1200 400 Q 1800 900 2400 392" stroke-dasharray="5 5" opacity="0.53"></path><path d="M 0 364 Q 600 -100 1200 400 Q 1800 900 2400 364" stroke-dasharray="7 3" opacity="0.41"></path><path d="M 0 336 Q 600 -100 1200 400 Q 1800 900 2400 336" stroke-dasharray="6 0" opacity="0.74"></path><path d="M 0 308 Q 600 -100 1200 400 Q 1800 900 2400 308" stroke-dasharray="5 4" opacity="0.65"></path><path d="M 0 280 Q 600 -100 1200 400 Q 1800 900 2400 280" stroke-dasharray="2 1" opacity="0.59"></path><path d="M 0 252 Q 600 -100 1200 400 Q 1800 900 2400 252" stroke-dasharray="0 6" opacity="0.42"></path><path d="M 0 224 Q 600 -100 1200 400 Q 1800 900 2400 224" stroke-dasharray="0 4" opacity="0.13"></path><path d="M 0 196 Q 600 -100 1200 400 Q 1800 900 2400 196" stroke-dasharray="5 5" opacity="0.14"></path><path d="M 0 168 Q 600 -100 1200 400 Q 1800 900 2400 168" stroke-dasharray="4 4" opacity="0.51"></path><path d="M 0 140 Q 600 -100 1200 400 Q 1800 900 2400 140" stroke-dasharray="0 7" opacity="0.72"></path><path d="M 0 112 Q 600 -100 1200 400 Q 1800 900 2400 112" stroke-dasharray="6 0" opacity="0.47"></path><path d="M 0 84 Q 600 -100 1200 400 Q 1800 900 2400 84" stroke-dasharray="1 3" opacity="0.79"></path><path d="M 0 56 Q 600 -100 1200 400 Q 1800 900 2400 56" stroke-dasharray="5 1" opacity="0.09"></path></g></svg>